G04 EAGLE Gerber RS-274X export*
G75*
%MOMM*%
%FSLAX34Y34*%
%LPD*%
%INTop Copper*%
%IPPOS*%
%AMOC8*
5,1,8,0,0,1.08239X$1,22.5*%
G01*
G04 Define Apertures*
%ADD10C,1.524000*%
%ADD11P,2.74927X8X22.5*%
%ADD12C,1.260000*%
%ADD13R,1.498600X1.498600*%
%ADD14C,1.498600*%
%ADD15C,1.800000*%
%ADD16R,1.228000X1.228000*%
%ADD17C,1.228000*%
%ADD18R,1.508000X1.508000*%
%ADD19C,1.508000*%
%ADD20C,7.550000*%
%ADD21C,0.152400*%
%ADD22C,0.254000*%
D10*
X970280Y749300D02*
X985520Y749300D01*
X985520Y723900D02*
X970280Y723900D01*
X970280Y698500D02*
X985520Y698500D01*
X985520Y673100D02*
X970280Y673100D01*
D11*
X863600Y254000D03*
X914400Y254000D03*
D12*
X571500Y446400D03*
X571500Y518800D03*
X635000Y446400D03*
X635000Y518800D03*
D13*
X590042Y684276D03*
D14*
X635000Y684276D03*
X635000Y749300D03*
X590042Y749300D03*
D13*
X590042Y569976D03*
D14*
X635000Y569976D03*
X635000Y635000D03*
X590042Y635000D03*
D15*
X736600Y273160D03*
X812800Y273160D03*
X787400Y273160D03*
X762000Y273160D03*
D16*
X935400Y596900D03*
D17*
X935400Y571500D03*
X935400Y546100D03*
X935400Y520700D03*
X935400Y495300D03*
X935400Y469900D03*
X935400Y444500D03*
X935400Y419100D03*
X935400Y393700D03*
X1020400Y393700D03*
X1020400Y419100D03*
X1020400Y444500D03*
X1020400Y469900D03*
X1020400Y495300D03*
X1020400Y520700D03*
X1020400Y546100D03*
X1020400Y571500D03*
X1020400Y596900D03*
D18*
X736600Y774700D03*
D19*
X736600Y749300D03*
X736600Y723900D03*
X736600Y698500D03*
X736600Y673100D03*
X736600Y647700D03*
X736600Y622300D03*
X736600Y596900D03*
X736600Y571500D03*
X736600Y546100D03*
X736600Y520700D03*
X736600Y495300D03*
X736600Y469900D03*
X736600Y444500D03*
X736600Y419100D03*
X889000Y419100D03*
X889000Y444500D03*
X889000Y469900D03*
X889000Y495300D03*
X889000Y520700D03*
X889000Y546100D03*
X889000Y571500D03*
X889000Y596900D03*
X889000Y622300D03*
X889000Y647700D03*
X889000Y673100D03*
X889000Y698500D03*
X889000Y723900D03*
X889000Y749300D03*
X889000Y774700D03*
D10*
X1021080Y736600D02*
X1036320Y736600D01*
X1036320Y711200D02*
X1021080Y711200D01*
X1021080Y685800D02*
X1036320Y685800D01*
X1071880Y736600D02*
X1087120Y736600D01*
X1087120Y711200D02*
X1071880Y711200D01*
X1071880Y685800D02*
X1087120Y685800D01*
D20*
X632110Y142590D03*
X1079500Y142590D03*
X1092200Y939800D03*
X647700Y870110D03*
D21*
X888492Y608076D02*
X888492Y597408D01*
X888492Y608076D02*
X877824Y618744D01*
X877824Y650748D01*
X890016Y662940D01*
X893064Y662940D01*
X978408Y748284D01*
X888492Y597408D02*
X889000Y596900D01*
X978408Y748284D02*
X977900Y749300D01*
X890016Y633984D02*
X890016Y623316D01*
X890016Y633984D02*
X957072Y701040D01*
X957072Y704088D01*
X976884Y723900D01*
X890016Y623316D02*
X889000Y622300D01*
X976884Y723900D02*
X977900Y723900D01*
X591312Y621792D02*
X591312Y569976D01*
X591312Y621792D02*
X600456Y630936D01*
X600456Y675132D01*
X591312Y684276D01*
X591312Y569976D02*
X590042Y569976D01*
X590042Y684276D02*
X591312Y684276D01*
X890016Y699516D02*
X900684Y699516D01*
X964692Y763524D01*
X1002792Y763524D01*
X1024128Y742188D02*
X1028700Y737616D01*
X1024128Y742188D02*
X1002792Y763524D01*
X890016Y699516D02*
X889000Y698500D01*
X1028700Y736600D02*
X1028700Y737616D01*
X981456Y699516D02*
X978408Y699516D01*
X981456Y699516D02*
X1024128Y742188D01*
X978408Y699516D02*
X977900Y698500D01*
X1028700Y736600D02*
X1024128Y742188D01*
X1054608Y737616D02*
X1078992Y737616D01*
X1054608Y737616D02*
X1022604Y769620D01*
X899160Y769620D01*
X890016Y760476D01*
X885444Y760476D01*
X877824Y752856D01*
X877824Y710184D01*
X888492Y699516D01*
X1078992Y737616D02*
X1079500Y736600D01*
X889000Y698500D02*
X888492Y699516D01*
X589788Y684276D02*
X589788Y734568D01*
X579120Y745236D01*
X579120Y752856D01*
X586740Y760476D01*
X609600Y760476D01*
X630936Y739140D01*
X711708Y739140D01*
X733044Y760476D01*
X870204Y760476D01*
X877824Y752856D01*
X590042Y684276D02*
X589788Y684276D01*
X890016Y749808D02*
X946404Y749808D01*
X963168Y766572D01*
X1021080Y766572D01*
X1046988Y740664D01*
X1046988Y729996D01*
X1028700Y711708D01*
X890016Y749808D02*
X889000Y749300D01*
X1028700Y711708D02*
X1028700Y711200D01*
X992124Y673608D02*
X978408Y673608D01*
X992124Y673608D02*
X1028700Y710184D01*
X978408Y673608D02*
X977900Y673100D01*
X1028700Y710184D02*
X1028700Y711200D01*
X1065276Y711708D02*
X1078992Y711708D01*
X1065276Y711708D02*
X1046988Y729996D01*
X1078992Y711708D02*
X1079500Y711200D01*
X923544Y519684D02*
X890016Y519684D01*
X923544Y519684D02*
X931164Y512064D01*
X938784Y512064D01*
X1008888Y582168D01*
X1008888Y665988D01*
X1028700Y685800D01*
X889000Y520700D02*
X890016Y519684D01*
X889000Y495300D02*
X922020Y495300D01*
X935736Y509016D01*
X940308Y509016D01*
X1011936Y580644D01*
X1011936Y618744D01*
X1078992Y685800D01*
X1079500Y685800D01*
X633984Y556260D02*
X633984Y519684D01*
X633984Y556260D02*
X603504Y586740D01*
X603504Y736092D01*
X591312Y748284D01*
X633984Y519684D02*
X635000Y518800D01*
X591312Y748284D02*
X590042Y749300D01*
X571500Y615696D02*
X571500Y518800D01*
X571500Y615696D02*
X589788Y633984D01*
X590042Y635000D01*
X1019556Y393192D02*
X1019556Y359664D01*
X914400Y254508D01*
X1019556Y393192D02*
X1020400Y393700D01*
X914400Y254508D02*
X914400Y254000D01*
X633984Y446532D02*
X571500Y446532D01*
X571500Y446400D01*
X633984Y446532D02*
X635000Y446400D01*
X736092Y691896D02*
X736092Y697992D01*
X736092Y691896D02*
X646176Y601980D01*
X646176Y457200D01*
X635508Y446532D01*
X736092Y697992D02*
X736600Y698500D01*
X635508Y446532D02*
X635000Y446400D01*
X883920Y252984D02*
X914400Y252984D01*
X883920Y252984D02*
X868680Y237744D01*
X780288Y237744D01*
X748284Y269748D01*
X748284Y332232D01*
X635508Y445008D01*
X914400Y254000D02*
X914400Y252984D01*
X635508Y445008D02*
X635000Y446400D01*
X635508Y749808D02*
X711708Y749808D01*
X736600Y774700D01*
X635508Y749808D02*
X635000Y749300D01*
X1021080Y595884D02*
X1021080Y583692D01*
X1030224Y574548D01*
X1030224Y347472D01*
X917448Y234696D01*
X775716Y234696D01*
X737616Y272796D01*
X1021080Y595884D02*
X1020400Y596900D01*
X737616Y272796D02*
X736600Y273160D01*
X1019556Y557784D02*
X1019556Y571500D01*
X1019556Y557784D02*
X1008888Y547116D01*
X1008888Y525780D01*
X1005840Y522732D01*
X1005840Y512064D01*
X950976Y457200D01*
X886968Y457200D01*
X762000Y332232D01*
X762000Y273160D01*
X1019556Y571500D02*
X1020400Y571500D01*
X1019556Y545592D02*
X1019556Y531876D01*
X1008888Y521208D01*
X1008888Y510540D01*
X952500Y454152D01*
X912876Y454152D01*
X888492Y429768D01*
X885444Y429768D01*
X787908Y332232D01*
X787908Y274320D01*
X1019556Y545592D02*
X1020400Y546100D01*
X787908Y274320D02*
X787400Y273160D01*
X1019556Y516636D02*
X1019556Y519684D01*
X1019556Y516636D02*
X908304Y405384D01*
X908304Y368808D01*
X813816Y274320D01*
X1019556Y519684D02*
X1020400Y520700D01*
X813816Y274320D02*
X812800Y273160D01*
X902208Y595884D02*
X934212Y595884D01*
X902208Y595884D02*
X893064Y586740D01*
X822960Y586740D01*
X736600Y673100D01*
X934212Y595884D02*
X935400Y596900D01*
X935736Y580644D02*
X935736Y571500D01*
X935736Y580644D02*
X960120Y605028D01*
X960120Y702564D01*
X970788Y713232D01*
X989076Y713232D01*
X996696Y720852D01*
X996696Y752856D01*
X989076Y760476D01*
X966216Y760476D01*
X890016Y684276D01*
X733044Y684276D01*
X725424Y676656D01*
X725424Y658368D01*
X736092Y647700D01*
X935400Y571500D02*
X935736Y571500D01*
X736600Y647700D02*
X736092Y647700D01*
X928116Y547116D02*
X934212Y547116D01*
X928116Y547116D02*
X891540Y583692D01*
X775716Y583692D01*
X737616Y621792D01*
X934212Y547116D02*
X935400Y546100D01*
X737616Y621792D02*
X736600Y622300D01*
X928116Y521208D02*
X934212Y521208D01*
X928116Y521208D02*
X888492Y560832D01*
X772668Y560832D01*
X736600Y596900D01*
X934212Y521208D02*
X935400Y520700D01*
X635508Y635508D02*
X635508Y647700D01*
X736092Y748284D01*
X635508Y635508D02*
X635000Y635000D01*
X736092Y748284D02*
X736600Y749300D01*
X934212Y393192D02*
X934212Y324612D01*
X863600Y254000D01*
X934212Y393192D02*
X935400Y393700D01*
D22*
X546100Y88900D02*
X1142800Y88900D01*
X1142800Y1000000D01*
X546100Y1000000D01*
X546100Y88900D01*
M02*
