G04 EAGLE Gerber RS-274X export*
G75*
%MOMM*%
%FSLAX34Y34*%
%LPD*%
%INSoldermask Top*%
%IPPOS*%
%AMOC8*
5,1,8,0,0,1.08239X$1,22.5*%
G01*
G04 Define Apertures*
%ADD10C,1.727200*%
%ADD11P,2.96921X8X22.5*%
%ADD12C,1.463200*%
%ADD13R,1.701800X1.701800*%
%ADD14C,1.701800*%
%ADD15C,2.003200*%
%ADD16R,1.431200X1.431200*%
%ADD17C,1.431200*%
%ADD18R,1.711200X1.711200*%
%ADD19C,1.711200*%
%ADD20C,1.854200*%
%ADD21C,2.903200*%
%ADD22C,7.753200*%
D10*
X970280Y749300D02*
X985520Y749300D01*
X985520Y723900D02*
X970280Y723900D01*
X970280Y698500D02*
X985520Y698500D01*
X985520Y673100D02*
X970280Y673100D01*
D11*
X863600Y254000D03*
X914400Y254000D03*
D12*
X571500Y446400D03*
X571500Y518800D03*
X635000Y446400D03*
X635000Y518800D03*
D13*
X590042Y684276D03*
D14*
X635000Y684276D03*
X635000Y749300D03*
X590042Y749300D03*
D13*
X590042Y569976D03*
D14*
X635000Y569976D03*
X635000Y635000D03*
X590042Y635000D03*
D15*
X736600Y273160D03*
X812800Y273160D03*
X787400Y273160D03*
X762000Y273160D03*
D16*
X935400Y596900D03*
D17*
X935400Y571500D03*
X935400Y546100D03*
X935400Y520700D03*
X935400Y495300D03*
X935400Y469900D03*
X935400Y444500D03*
X935400Y419100D03*
X935400Y393700D03*
X1020400Y393700D03*
X1020400Y419100D03*
X1020400Y444500D03*
X1020400Y469900D03*
X1020400Y495300D03*
X1020400Y520700D03*
X1020400Y546100D03*
X1020400Y571500D03*
X1020400Y596900D03*
D18*
X736600Y774700D03*
D19*
X736600Y749300D03*
X736600Y723900D03*
X736600Y698500D03*
X736600Y673100D03*
X736600Y647700D03*
X736600Y622300D03*
X736600Y596900D03*
X736600Y571500D03*
X736600Y546100D03*
X736600Y520700D03*
X736600Y495300D03*
X736600Y469900D03*
X736600Y444500D03*
X736600Y419100D03*
X889000Y419100D03*
X889000Y444500D03*
X889000Y469900D03*
X889000Y495300D03*
X889000Y520700D03*
X889000Y546100D03*
X889000Y571500D03*
X889000Y596900D03*
X889000Y622300D03*
X889000Y647700D03*
X889000Y673100D03*
X889000Y698500D03*
X889000Y723900D03*
X889000Y749300D03*
X889000Y774700D03*
D20*
X736600Y393700D03*
X889000Y393700D03*
X736600Y800100D03*
X889000Y800100D03*
D10*
X1021080Y736600D02*
X1036320Y736600D01*
X1036320Y711200D02*
X1021080Y711200D01*
X1021080Y685800D02*
X1036320Y685800D01*
X1071880Y736600D02*
X1087120Y736600D01*
X1087120Y711200D02*
X1071880Y711200D01*
X1071880Y685800D02*
X1087120Y685800D01*
D21*
X632110Y142590D03*
D22*
X632110Y142590D03*
D21*
X1079500Y142590D03*
D22*
X1079500Y142590D03*
D21*
X1092200Y939800D03*
D22*
X1092200Y939800D03*
D21*
X647700Y870110D03*
D22*
X647700Y870110D03*
M02*
