M48
;GenerationSoftware,Autodesk,EAGLE,9.7.0*%
;CreationDate,2022-07-27T23:22:54Z*%
FMAT,2
ICI,OFF
METRIC,TZ,000.000
T9C0.660
T8C0.720
T7C0.991
T6C1.000
T5C1.016
T4C1.200
T3C1.397
T2C1.651
T1C2.700
%
G90
M71
T1
X63211Y14259
X107950Y14259
X109220Y93980
X64770Y87011
X109220Y93980
X107950Y14259
X63211Y14259
X64770Y87011
T2
X73660Y39370
X88900Y39370
X73660Y80010
X88900Y80010
T3
X86360Y25400
X91440Y25400
T4
X73660Y27316
X81280Y27316
X78740Y27316
X76200Y27316
T5
X97790Y74930
X97790Y72390
X97790Y69850
X97790Y67310
X106680Y73660
X106680Y71120
X106680Y68580
X58400Y38628
X58400Y36088
X58400Y33548
X102870Y71120
X102870Y73660
X102870Y68580
T6
X73660Y69850
X73660Y41910
X88900Y41910
X88900Y44450
X88900Y46990
X88900Y49530
X88900Y52070
X73660Y44450
X88900Y57150
X88900Y59690
X88900Y62230
X88900Y64770
X88900Y67310
X88900Y69850
X88900Y72390
X88900Y74930
X73660Y57150
X88900Y77470
X73660Y77470
X73660Y74930
X73660Y72390
X73660Y67310
X73660Y64770
X73660Y62230
X73660Y59690
X88900Y54610
X73660Y54610
X73660Y52070
X73660Y49530
X73660Y46990
T7
X59004Y74930
X59004Y68428
X63500Y68428
X63500Y74930
X59004Y56998
X63500Y56998
X63500Y63500
X59004Y63500
T8
X93540Y59690
X93540Y57150
X93540Y52070
X93540Y46990
X93540Y44450
X93540Y41910
X93540Y39370
X102040Y39370
X102040Y41910
X102040Y54610
X93540Y54610
X102040Y52070
X102040Y49530
X102040Y46990
X102040Y44450
X102040Y57150
X102040Y59690
X93540Y49530
T9
X57150Y51880
X63500Y44640
X63500Y51880
X57150Y44640
M30