G04 EAGLE Gerber RS-274X export*
G75*
%MOMM*%
%FSLAX34Y34*%
%LPD*%
%INSilkscreen Bottom*%
%IPPOS*%
%AMOC8*
5,1,8,0,0,1.08239X$1,22.5*%
G01*
G04 Define Apertures*
G36*
X634139Y186690D02*
X632466Y186690D01*
X632466Y191498D01*
X628840Y191498D01*
X628362Y191515D01*
X627910Y191563D01*
X627483Y191644D01*
X627082Y191757D01*
X626707Y191902D01*
X626357Y192080D01*
X626033Y192290D01*
X625735Y192532D01*
X625467Y192802D01*
X625235Y193094D01*
X625038Y193408D01*
X624878Y193745D01*
X624753Y194104D01*
X624663Y194486D01*
X624610Y194890D01*
X624592Y195317D01*
X624610Y195747D01*
X624663Y196152D01*
X624752Y196532D01*
X624876Y196887D01*
X625037Y197217D01*
X625232Y197523D01*
X625464Y197803D01*
X625730Y198059D01*
X626030Y198286D01*
X626358Y198484D01*
X626716Y198651D01*
X627103Y198788D01*
X627520Y198894D01*
X627965Y198970D01*
X628440Y199016D01*
X628945Y199031D01*
X634139Y199031D01*
X634139Y186690D01*
G37*
%LPC*%
G36*
X632466Y192821D02*
X632466Y197691D01*
X629146Y197691D01*
X628798Y197681D01*
X628473Y197653D01*
X628170Y197607D01*
X627889Y197541D01*
X627631Y197457D01*
X627396Y197354D01*
X627182Y197233D01*
X626992Y197093D01*
X626823Y196934D01*
X626677Y196757D01*
X626554Y196561D01*
X626453Y196346D01*
X626374Y196112D01*
X626318Y195860D01*
X626285Y195589D01*
X626273Y195300D01*
X626284Y194999D01*
X626317Y194719D01*
X626372Y194457D01*
X626449Y194215D01*
X626547Y193993D01*
X626668Y193789D01*
X626810Y193605D01*
X626974Y193441D01*
X627160Y193295D01*
X627368Y193170D01*
X627598Y193063D01*
X627850Y192976D01*
X628124Y192908D01*
X628419Y192860D01*
X628737Y192831D01*
X629076Y192821D01*
X632466Y192821D01*
G37*
%LPD*%
G36*
X638583Y186690D02*
X637077Y186690D01*
X637077Y199031D01*
X639223Y199031D01*
X642446Y190474D01*
X642561Y190157D01*
X642748Y189576D01*
X642933Y188953D01*
X643041Y188512D01*
X643256Y189366D01*
X643421Y189938D01*
X643593Y190474D01*
X646878Y199031D01*
X649076Y199031D01*
X649076Y186690D01*
X647587Y186690D01*
X647587Y194923D01*
X647622Y196578D01*
X647648Y197551D01*
X647359Y196587D01*
X646869Y195098D01*
X643637Y186690D01*
X642463Y186690D01*
X639275Y195098D01*
X639099Y195583D01*
X638912Y196154D01*
X638505Y197551D01*
X638564Y196263D01*
X638583Y194923D01*
X638583Y186690D01*
G37*
G36*
X622275Y186690D02*
X614541Y186690D01*
X614541Y188030D01*
X617545Y188030D01*
X617545Y199031D01*
X618999Y199031D01*
X621916Y197025D01*
X621916Y195536D01*
X619131Y197524D01*
X619131Y188030D01*
X622275Y188030D01*
X622275Y186690D01*
G37*
G36*
X1081529Y186690D02*
X1079856Y186690D01*
X1079856Y191498D01*
X1076230Y191498D01*
X1075752Y191515D01*
X1075300Y191563D01*
X1074873Y191644D01*
X1074472Y191757D01*
X1074097Y191902D01*
X1073747Y192080D01*
X1073423Y192290D01*
X1073125Y192532D01*
X1072857Y192802D01*
X1072625Y193094D01*
X1072428Y193408D01*
X1072268Y193745D01*
X1072143Y194104D01*
X1072053Y194486D01*
X1072000Y194890D01*
X1071982Y195317D01*
X1072000Y195747D01*
X1072053Y196152D01*
X1072142Y196532D01*
X1072266Y196887D01*
X1072427Y197217D01*
X1072622Y197523D01*
X1072854Y197803D01*
X1073120Y198059D01*
X1073420Y198286D01*
X1073748Y198484D01*
X1074106Y198651D01*
X1074493Y198788D01*
X1074910Y198894D01*
X1075355Y198970D01*
X1075830Y199016D01*
X1076335Y199031D01*
X1081529Y199031D01*
X1081529Y186690D01*
G37*
%LPC*%
G36*
X1079856Y192821D02*
X1079856Y197691D01*
X1076536Y197691D01*
X1076188Y197681D01*
X1075863Y197653D01*
X1075560Y197607D01*
X1075279Y197541D01*
X1075021Y197457D01*
X1074786Y197354D01*
X1074572Y197233D01*
X1074382Y197093D01*
X1074213Y196934D01*
X1074067Y196757D01*
X1073944Y196561D01*
X1073843Y196346D01*
X1073764Y196112D01*
X1073708Y195860D01*
X1073675Y195589D01*
X1073663Y195300D01*
X1073674Y194999D01*
X1073707Y194719D01*
X1073762Y194457D01*
X1073839Y194215D01*
X1073937Y193993D01*
X1074058Y193789D01*
X1074200Y193605D01*
X1074364Y193441D01*
X1074550Y193295D01*
X1074758Y193170D01*
X1074988Y193063D01*
X1075240Y192976D01*
X1075514Y192908D01*
X1075809Y192860D01*
X1076127Y192831D01*
X1076466Y192821D01*
X1079856Y192821D01*
G37*
%LPD*%
G36*
X1085973Y186690D02*
X1084467Y186690D01*
X1084467Y199031D01*
X1086613Y199031D01*
X1089836Y190474D01*
X1089951Y190157D01*
X1090138Y189576D01*
X1090323Y188953D01*
X1090431Y188512D01*
X1090646Y189366D01*
X1090811Y189938D01*
X1090983Y190474D01*
X1094268Y199031D01*
X1096466Y199031D01*
X1096466Y186690D01*
X1094977Y186690D01*
X1094977Y194923D01*
X1095012Y196578D01*
X1095038Y197551D01*
X1094749Y196587D01*
X1094259Y195098D01*
X1091027Y186690D01*
X1089853Y186690D01*
X1086665Y195098D01*
X1086489Y195583D01*
X1086302Y196154D01*
X1085895Y197551D01*
X1085954Y196263D01*
X1085973Y194923D01*
X1085973Y186690D01*
G37*
G36*
X1070129Y186690D02*
X1061957Y186690D01*
X1061957Y188030D01*
X1068395Y188030D01*
X1068243Y188340D01*
X1068049Y188655D01*
X1067814Y188977D01*
X1067537Y189304D01*
X1067213Y189645D01*
X1066838Y190006D01*
X1066412Y190387D01*
X1065934Y190789D01*
X1065092Y191485D01*
X1064399Y192083D01*
X1063853Y192584D01*
X1063455Y192987D01*
X1063151Y193342D01*
X1062887Y193697D01*
X1062663Y194052D01*
X1062479Y194406D01*
X1062335Y194762D01*
X1062232Y195118D01*
X1062171Y195475D01*
X1062150Y195834D01*
X1062166Y196227D01*
X1062213Y196598D01*
X1062291Y196945D01*
X1062401Y197269D01*
X1062542Y197570D01*
X1062714Y197848D01*
X1062918Y198103D01*
X1063153Y198334D01*
X1063417Y198541D01*
X1063708Y198720D01*
X1064026Y198871D01*
X1064372Y198995D01*
X1064744Y199091D01*
X1065143Y199160D01*
X1065568Y199201D01*
X1066021Y199215D01*
X1066437Y199201D01*
X1066832Y199160D01*
X1067209Y199092D01*
X1067566Y198996D01*
X1067904Y198873D01*
X1068223Y198722D01*
X1068522Y198544D01*
X1068802Y198339D01*
X1069058Y198110D01*
X1069286Y197863D01*
X1069486Y197597D01*
X1069657Y197312D01*
X1069800Y197008D01*
X1069915Y196685D01*
X1070001Y196343D01*
X1070059Y195983D01*
X1068448Y195834D01*
X1068411Y196074D01*
X1068357Y196301D01*
X1068286Y196514D01*
X1068199Y196713D01*
X1068095Y196898D01*
X1067974Y197070D01*
X1067836Y197227D01*
X1067681Y197371D01*
X1067512Y197499D01*
X1067333Y197611D01*
X1067142Y197705D01*
X1066940Y197782D01*
X1066727Y197841D01*
X1066503Y197884D01*
X1066268Y197910D01*
X1066021Y197918D01*
X1065764Y197910D01*
X1065521Y197883D01*
X1065292Y197840D01*
X1065078Y197778D01*
X1064878Y197699D01*
X1064693Y197603D01*
X1064522Y197489D01*
X1064366Y197358D01*
X1064226Y197211D01*
X1064105Y197049D01*
X1064003Y196873D01*
X1063919Y196683D01*
X1063854Y196479D01*
X1063808Y196261D01*
X1063780Y196028D01*
X1063770Y195781D01*
X1063792Y195415D01*
X1063857Y195068D01*
X1063965Y194740D01*
X1064116Y194433D01*
X1064303Y194138D01*
X1064516Y193850D01*
X1064756Y193569D01*
X1065023Y193294D01*
X1065617Y192751D01*
X1066280Y192208D01*
X1066979Y191642D01*
X1067686Y191030D01*
X1068036Y190703D01*
X1068379Y190358D01*
X1068713Y189994D01*
X1069039Y189611D01*
X1069348Y189204D01*
X1069633Y188767D01*
X1069893Y188300D01*
X1070129Y187802D01*
X1070129Y186690D01*
G37*
G36*
X1094229Y983900D02*
X1092556Y983900D01*
X1092556Y988708D01*
X1088930Y988708D01*
X1088452Y988725D01*
X1088000Y988773D01*
X1087573Y988854D01*
X1087172Y988967D01*
X1086797Y989112D01*
X1086447Y989290D01*
X1086123Y989500D01*
X1085825Y989742D01*
X1085557Y990012D01*
X1085325Y990304D01*
X1085128Y990618D01*
X1084968Y990955D01*
X1084843Y991314D01*
X1084753Y991696D01*
X1084700Y992100D01*
X1084682Y992527D01*
X1084700Y992957D01*
X1084753Y993362D01*
X1084842Y993742D01*
X1084966Y994097D01*
X1085127Y994427D01*
X1085322Y994733D01*
X1085554Y995013D01*
X1085820Y995269D01*
X1086120Y995496D01*
X1086448Y995694D01*
X1086806Y995861D01*
X1087193Y995998D01*
X1087610Y996104D01*
X1088055Y996180D01*
X1088530Y996226D01*
X1089035Y996241D01*
X1094229Y996241D01*
X1094229Y983900D01*
G37*
%LPC*%
G36*
X1092556Y990031D02*
X1092556Y994901D01*
X1089236Y994901D01*
X1088888Y994891D01*
X1088563Y994863D01*
X1088260Y994817D01*
X1087979Y994751D01*
X1087721Y994667D01*
X1087486Y994564D01*
X1087272Y994443D01*
X1087082Y994303D01*
X1086913Y994144D01*
X1086767Y993967D01*
X1086644Y993771D01*
X1086543Y993556D01*
X1086464Y993322D01*
X1086408Y993070D01*
X1086375Y992799D01*
X1086363Y992510D01*
X1086374Y992209D01*
X1086407Y991929D01*
X1086462Y991667D01*
X1086539Y991425D01*
X1086637Y991203D01*
X1086758Y990999D01*
X1086900Y990815D01*
X1087064Y990651D01*
X1087250Y990505D01*
X1087458Y990380D01*
X1087688Y990273D01*
X1087940Y990186D01*
X1088214Y990118D01*
X1088509Y990070D01*
X1088827Y990041D01*
X1089166Y990031D01*
X1092556Y990031D01*
G37*
%LPD*%
G36*
X1098673Y983900D02*
X1097167Y983900D01*
X1097167Y996241D01*
X1099313Y996241D01*
X1102536Y987684D01*
X1102651Y987367D01*
X1102838Y986786D01*
X1103023Y986163D01*
X1103131Y985722D01*
X1103346Y986576D01*
X1103511Y987148D01*
X1103683Y987684D01*
X1106968Y996241D01*
X1109166Y996241D01*
X1109166Y983900D01*
X1107677Y983900D01*
X1107677Y992133D01*
X1107712Y993788D01*
X1107738Y994761D01*
X1107449Y993797D01*
X1106959Y992308D01*
X1103727Y983900D01*
X1102553Y983900D01*
X1099365Y992308D01*
X1099189Y992793D01*
X1099002Y993364D01*
X1098595Y994761D01*
X1098654Y993473D01*
X1098673Y992133D01*
X1098673Y983900D01*
G37*
G36*
X1078730Y983725D02*
X1078241Y983740D01*
X1077781Y983783D01*
X1077350Y983857D01*
X1076948Y983959D01*
X1076575Y984091D01*
X1076231Y984252D01*
X1075916Y984442D01*
X1075630Y984662D01*
X1075375Y984908D01*
X1075154Y985179D01*
X1074968Y985473D01*
X1074815Y985792D01*
X1074696Y986135D01*
X1074611Y986501D01*
X1074561Y986892D01*
X1074544Y987307D01*
X1074556Y987596D01*
X1074592Y987873D01*
X1074652Y988137D01*
X1074736Y988389D01*
X1074845Y988628D01*
X1074977Y988854D01*
X1075134Y989068D01*
X1075314Y989269D01*
X1075517Y989454D01*
X1075738Y989619D01*
X1075979Y989765D01*
X1076238Y989891D01*
X1076517Y989997D01*
X1076815Y990084D01*
X1077133Y990150D01*
X1077469Y990197D01*
X1077469Y990232D01*
X1077163Y990306D01*
X1076876Y990394D01*
X1076607Y990497D01*
X1076358Y990615D01*
X1076127Y990747D01*
X1075915Y990895D01*
X1075721Y991058D01*
X1075546Y991235D01*
X1075391Y991427D01*
X1075257Y991633D01*
X1075143Y991853D01*
X1075050Y992086D01*
X1074978Y992333D01*
X1074926Y992594D01*
X1074895Y992869D01*
X1074885Y993158D01*
X1074901Y993533D01*
X1074949Y993886D01*
X1075030Y994218D01*
X1075142Y994530D01*
X1075287Y994820D01*
X1075464Y995088D01*
X1075673Y995336D01*
X1075914Y995562D01*
X1076184Y995764D01*
X1076481Y995939D01*
X1076803Y996088D01*
X1077150Y996209D01*
X1077524Y996303D01*
X1077924Y996371D01*
X1078349Y996411D01*
X1078800Y996425D01*
X1079215Y996411D01*
X1079611Y996372D01*
X1079988Y996305D01*
X1080345Y996212D01*
X1080683Y996093D01*
X1081002Y995947D01*
X1081301Y995774D01*
X1081581Y995575D01*
X1081837Y995352D01*
X1082065Y995109D01*
X1082265Y994844D01*
X1082436Y994559D01*
X1082579Y994253D01*
X1082694Y993926D01*
X1082780Y993579D01*
X1082838Y993210D01*
X1081253Y993088D01*
X1081218Y993324D01*
X1081166Y993546D01*
X1081098Y993755D01*
X1081013Y993950D01*
X1080911Y994132D01*
X1080792Y994300D01*
X1080656Y994454D01*
X1080504Y994594D01*
X1080337Y994719D01*
X1080157Y994828D01*
X1079965Y994920D01*
X1079760Y994995D01*
X1079543Y995053D01*
X1079314Y995095D01*
X1079072Y995120D01*
X1078818Y995128D01*
X1078540Y995119D01*
X1078279Y995093D01*
X1078037Y995048D01*
X1077812Y994985D01*
X1077604Y994904D01*
X1077414Y994806D01*
X1077242Y994689D01*
X1077088Y994555D01*
X1076951Y994405D01*
X1076833Y994242D01*
X1076733Y994066D01*
X1076651Y993877D01*
X1076587Y993675D01*
X1076542Y993460D01*
X1076515Y993232D01*
X1076505Y992991D01*
X1076517Y992749D01*
X1076550Y992519D01*
X1076606Y992303D01*
X1076684Y992101D01*
X1076784Y991913D01*
X1076907Y991738D01*
X1077052Y991576D01*
X1077219Y991428D01*
X1077407Y991296D01*
X1077613Y991181D01*
X1077837Y991084D01*
X1078079Y991004D01*
X1078339Y990942D01*
X1078618Y990898D01*
X1078914Y990872D01*
X1079229Y990863D01*
X1080088Y990863D01*
X1080088Y989497D01*
X1079194Y989497D01*
X1078839Y989488D01*
X1078506Y989461D01*
X1078194Y989417D01*
X1077904Y989355D01*
X1077635Y989276D01*
X1077387Y989179D01*
X1077161Y989064D01*
X1076957Y988932D01*
X1076775Y988784D01*
X1076617Y988622D01*
X1076484Y988446D01*
X1076375Y988256D01*
X1076290Y988053D01*
X1076230Y987836D01*
X1076194Y987605D01*
X1076181Y987360D01*
X1076192Y987079D01*
X1076224Y986817D01*
X1076277Y986573D01*
X1076351Y986346D01*
X1076447Y986137D01*
X1076563Y985946D01*
X1076701Y985772D01*
X1076860Y985617D01*
X1077038Y985479D01*
X1077232Y985360D01*
X1077441Y985259D01*
X1077667Y985177D01*
X1077909Y985112D01*
X1078167Y985067D01*
X1078440Y985039D01*
X1078730Y985030D01*
X1079019Y985038D01*
X1079291Y985064D01*
X1079548Y985107D01*
X1079788Y985167D01*
X1080013Y985244D01*
X1080221Y985338D01*
X1080413Y985449D01*
X1080589Y985577D01*
X1080749Y985723D01*
X1080893Y985885D01*
X1081021Y986065D01*
X1081133Y986262D01*
X1081228Y986475D01*
X1081308Y986706D01*
X1081372Y986954D01*
X1081419Y987219D01*
X1083048Y987071D01*
X1082981Y986669D01*
X1082886Y986294D01*
X1082763Y985943D01*
X1082611Y985618D01*
X1082431Y985318D01*
X1082223Y985043D01*
X1081986Y984794D01*
X1081721Y984570D01*
X1081430Y984372D01*
X1081115Y984200D01*
X1080777Y984055D01*
X1080415Y983936D01*
X1080029Y983844D01*
X1079620Y983778D01*
X1079187Y983738D01*
X1078730Y983725D01*
G37*
G36*
X649729Y914210D02*
X648056Y914210D01*
X648056Y919018D01*
X644430Y919018D01*
X643952Y919035D01*
X643500Y919083D01*
X643073Y919164D01*
X642672Y919277D01*
X642297Y919422D01*
X641947Y919600D01*
X641623Y919810D01*
X641325Y920052D01*
X641057Y920322D01*
X640825Y920614D01*
X640628Y920928D01*
X640468Y921265D01*
X640343Y921624D01*
X640253Y922006D01*
X640200Y922410D01*
X640182Y922837D01*
X640200Y923267D01*
X640253Y923672D01*
X640342Y924052D01*
X640466Y924407D01*
X640627Y924737D01*
X640822Y925043D01*
X641054Y925323D01*
X641320Y925579D01*
X641620Y925806D01*
X641948Y926004D01*
X642306Y926171D01*
X642693Y926308D01*
X643110Y926414D01*
X643555Y926490D01*
X644030Y926536D01*
X644535Y926551D01*
X649729Y926551D01*
X649729Y914210D01*
G37*
%LPC*%
G36*
X648056Y920341D02*
X648056Y925211D01*
X644736Y925211D01*
X644388Y925201D01*
X644063Y925173D01*
X643760Y925127D01*
X643479Y925061D01*
X643221Y924977D01*
X642986Y924874D01*
X642772Y924753D01*
X642582Y924613D01*
X642413Y924454D01*
X642267Y924277D01*
X642144Y924081D01*
X642043Y923866D01*
X641964Y923632D01*
X641908Y923380D01*
X641875Y923109D01*
X641863Y922820D01*
X641874Y922519D01*
X641907Y922239D01*
X641962Y921977D01*
X642039Y921735D01*
X642137Y921513D01*
X642258Y921309D01*
X642400Y921125D01*
X642564Y920961D01*
X642750Y920815D01*
X642958Y920690D01*
X643188Y920583D01*
X643440Y920496D01*
X643714Y920428D01*
X644009Y920380D01*
X644327Y920351D01*
X644666Y920341D01*
X648056Y920341D01*
G37*
%LPD*%
G36*
X654173Y914210D02*
X652667Y914210D01*
X652667Y926551D01*
X654813Y926551D01*
X658036Y917994D01*
X658151Y917677D01*
X658338Y917096D01*
X658523Y916473D01*
X658631Y916032D01*
X658846Y916886D01*
X659011Y917458D01*
X659183Y917994D01*
X662468Y926551D01*
X664666Y926551D01*
X664666Y914210D01*
X663177Y914210D01*
X663177Y922443D01*
X663212Y924098D01*
X663238Y925071D01*
X662949Y924107D01*
X662459Y922618D01*
X659227Y914210D01*
X658053Y914210D01*
X654865Y922618D01*
X654689Y923103D01*
X654502Y923674D01*
X654095Y925071D01*
X654154Y923783D01*
X654173Y922443D01*
X654173Y914210D01*
G37*
G36*
X633004Y914210D02*
X631515Y914210D01*
X631515Y917004D01*
X629781Y917004D01*
X629781Y918248D01*
X631515Y918248D01*
X631515Y926551D01*
X633170Y926551D01*
X638820Y918230D01*
X638820Y917004D01*
X633004Y917004D01*
X633004Y914210D01*
G37*
%LPC*%
G36*
X637366Y918248D02*
X637226Y918423D01*
X636753Y919071D01*
X633591Y923731D01*
X633249Y924309D01*
X633004Y924773D01*
X633004Y918248D01*
X637366Y918248D01*
G37*
%LPD*%
M02*
