G04 EAGLE Gerber RS-274X export*
G75*
%MOMM*%
%FSLAX34Y34*%
%LPD*%
%INSilkscreen Top*%
%IPPOS*%
%AMOC8*
5,1,8,0,0,1.08239X$1,22.5*%
G01*
G04 Define Apertures*
%ADD10C,0.152400*%
%ADD11C,0.127000*%
%ADD12C,0.200000*%
G36*
X1008888Y742296D02*
X996547Y742296D01*
X996547Y747490D01*
X996562Y747994D01*
X996608Y748469D01*
X996684Y748915D01*
X996790Y749331D01*
X996927Y749718D01*
X997094Y750076D01*
X997292Y750405D01*
X997519Y750704D01*
X997775Y750971D01*
X998055Y751202D01*
X998361Y751398D01*
X998691Y751558D01*
X999046Y751683D01*
X999426Y751772D01*
X999831Y751825D01*
X1000261Y751843D01*
X1000688Y751825D01*
X1001092Y751771D01*
X1001474Y751682D01*
X1001833Y751557D01*
X1002170Y751396D01*
X1002484Y751200D01*
X1002776Y750968D01*
X1003046Y750700D01*
X1003288Y750401D01*
X1003498Y750077D01*
X1003676Y749727D01*
X1003821Y749352D01*
X1003934Y748951D01*
X1004015Y748525D01*
X1004063Y748073D01*
X1004080Y747595D01*
X1004080Y743969D01*
X1008888Y743969D01*
X1008888Y742296D01*
G37*
%LPC*%
G36*
X1002757Y743969D02*
X1002757Y747358D01*
X1002747Y747698D01*
X1002718Y748015D01*
X1002670Y748311D01*
X1002602Y748585D01*
X1002515Y748836D01*
X1002408Y749066D01*
X1002283Y749274D01*
X1002137Y749460D01*
X1001973Y749625D01*
X1001789Y749767D01*
X1001585Y749887D01*
X1001363Y749986D01*
X1001121Y750063D01*
X1000859Y750117D01*
X1000579Y750150D01*
X1000278Y750161D01*
X999989Y750150D01*
X999718Y750116D01*
X999466Y750060D01*
X999232Y749982D01*
X999017Y749881D01*
X998821Y749757D01*
X998644Y749611D01*
X998485Y749443D01*
X998345Y749252D01*
X998224Y749039D01*
X998121Y748803D01*
X998037Y748545D01*
X997971Y748265D01*
X997925Y747962D01*
X997897Y747636D01*
X997887Y747288D01*
X997887Y743969D01*
X1002757Y743969D01*
G37*
%LPD*%
G36*
X1008888Y754160D02*
X1007548Y754160D01*
X1007548Y757304D01*
X998054Y757304D01*
X1000042Y754519D01*
X998553Y754519D01*
X996547Y757435D01*
X996547Y758889D01*
X1007548Y758889D01*
X1007548Y761893D01*
X1008888Y761893D01*
X1008888Y754160D01*
G37*
G36*
X1005823Y732136D02*
X1005551Y733774D01*
X1005798Y733819D01*
X1006031Y733877D01*
X1006250Y733948D01*
X1006455Y734030D01*
X1006647Y734125D01*
X1006824Y734232D01*
X1006987Y734352D01*
X1007136Y734483D01*
X1007270Y734626D01*
X1007385Y734777D01*
X1007483Y734937D01*
X1007563Y735105D01*
X1007626Y735283D01*
X1007670Y735469D01*
X1007697Y735664D01*
X1007706Y735867D01*
X1007696Y736089D01*
X1007666Y736299D01*
X1007618Y736496D01*
X1007549Y736682D01*
X1007461Y736855D01*
X1007353Y737017D01*
X1007226Y737166D01*
X1007079Y737304D01*
X1006914Y737427D01*
X1006730Y737533D01*
X1006528Y737624D01*
X1006308Y737698D01*
X1006069Y737755D01*
X1005812Y737796D01*
X1005538Y737821D01*
X1005244Y737829D01*
X997914Y737829D01*
X997914Y735456D01*
X996547Y735456D01*
X996547Y739493D01*
X1005209Y739493D01*
X1005646Y739478D01*
X1006059Y739432D01*
X1006448Y739356D01*
X1006813Y739250D01*
X1007154Y739113D01*
X1007472Y738946D01*
X1007765Y738749D01*
X1008034Y738521D01*
X1008275Y738267D01*
X1008484Y737990D01*
X1008661Y737691D01*
X1008806Y737369D01*
X1008918Y737025D01*
X1008999Y736659D01*
X1009047Y736270D01*
X1009063Y735858D01*
X1009051Y735476D01*
X1009013Y735114D01*
X1008949Y734772D01*
X1008861Y734450D01*
X1008747Y734148D01*
X1008607Y733865D01*
X1008443Y733603D01*
X1008253Y733360D01*
X1008038Y733137D01*
X1007797Y732935D01*
X1007531Y732752D01*
X1007240Y732589D01*
X1006924Y732446D01*
X1006582Y732323D01*
X1006215Y732219D01*
X1005823Y732136D01*
G37*
G36*
X874712Y271780D02*
X873039Y271780D01*
X873039Y284121D01*
X878233Y284121D01*
X878737Y284106D01*
X879212Y284060D01*
X879658Y283984D01*
X880074Y283878D01*
X880461Y283741D01*
X880819Y283574D01*
X881148Y283376D01*
X881447Y283149D01*
X881714Y282893D01*
X881945Y282613D01*
X882141Y282307D01*
X882301Y281977D01*
X882426Y281622D01*
X882515Y281242D01*
X882568Y280837D01*
X882586Y280407D01*
X882568Y279980D01*
X882514Y279576D01*
X882425Y279194D01*
X882300Y278835D01*
X882139Y278498D01*
X881943Y278184D01*
X881711Y277892D01*
X881443Y277622D01*
X881144Y277380D01*
X880820Y277170D01*
X880470Y276992D01*
X880095Y276847D01*
X879694Y276734D01*
X879268Y276653D01*
X878816Y276605D01*
X878338Y276588D01*
X874712Y276588D01*
X874712Y271780D01*
G37*
%LPC*%
G36*
X878101Y277911D02*
X878441Y277921D01*
X878758Y277950D01*
X879054Y277998D01*
X879328Y278066D01*
X879579Y278153D01*
X879809Y278260D01*
X880017Y278385D01*
X880203Y278531D01*
X880368Y278695D01*
X880510Y278879D01*
X880630Y279083D01*
X880729Y279305D01*
X880806Y279547D01*
X880860Y279809D01*
X880893Y280089D01*
X880904Y280390D01*
X880893Y280679D01*
X880859Y280950D01*
X880803Y281202D01*
X880725Y281436D01*
X880624Y281651D01*
X880500Y281847D01*
X880354Y282024D01*
X880186Y282183D01*
X879995Y282323D01*
X879782Y282444D01*
X879546Y282547D01*
X879288Y282631D01*
X879008Y282697D01*
X878705Y282743D01*
X878379Y282771D01*
X878031Y282781D01*
X874712Y282781D01*
X874712Y277911D01*
X878101Y277911D01*
G37*
%LPD*%
G36*
X865642Y271605D02*
X865093Y271617D01*
X864574Y271654D01*
X864084Y271715D01*
X863624Y271801D01*
X863193Y271911D01*
X862792Y272046D01*
X862421Y272205D01*
X862080Y272389D01*
X861768Y272597D01*
X861485Y272830D01*
X861233Y273087D01*
X861009Y273369D01*
X860816Y273675D01*
X860652Y274005D01*
X860518Y274361D01*
X860413Y274740D01*
X862034Y275064D01*
X862114Y274796D01*
X862213Y274545D01*
X862333Y274313D01*
X862472Y274100D01*
X862630Y273905D01*
X862809Y273729D01*
X863007Y273571D01*
X863225Y273431D01*
X863463Y273309D01*
X863721Y273203D01*
X864000Y273113D01*
X864300Y273040D01*
X864620Y272983D01*
X864961Y272942D01*
X865322Y272918D01*
X865703Y272910D01*
X866097Y272919D01*
X866467Y272945D01*
X866815Y272988D01*
X867139Y273049D01*
X867440Y273127D01*
X867718Y273223D01*
X867972Y273336D01*
X868204Y273466D01*
X868410Y273613D01*
X868589Y273777D01*
X868740Y273956D01*
X868864Y274152D01*
X868960Y274365D01*
X869029Y274593D01*
X869071Y274838D01*
X869084Y275099D01*
X869067Y275387D01*
X869015Y275647D01*
X868929Y275878D01*
X868808Y276080D01*
X868656Y276261D01*
X868477Y276424D01*
X868269Y276571D01*
X868033Y276702D01*
X867772Y276820D01*
X867486Y276928D01*
X867176Y277026D01*
X866842Y277114D01*
X865309Y277473D01*
X864622Y277635D01*
X864023Y277797D01*
X863512Y277959D01*
X863089Y278121D01*
X862730Y278288D01*
X862411Y278464D01*
X862132Y278649D01*
X861893Y278844D01*
X861687Y279052D01*
X861507Y279276D01*
X861352Y279518D01*
X861223Y279777D01*
X861122Y280054D01*
X861049Y280350D01*
X861006Y280667D01*
X860991Y281003D01*
X861010Y281388D01*
X861067Y281750D01*
X861162Y282089D01*
X861295Y282406D01*
X861465Y282700D01*
X861674Y282972D01*
X861920Y283220D01*
X862204Y283446D01*
X862524Y283648D01*
X862876Y283822D01*
X863261Y283969D01*
X863679Y284090D01*
X864130Y284184D01*
X864613Y284251D01*
X865129Y284291D01*
X865677Y284305D01*
X866187Y284295D01*
X866666Y284264D01*
X867115Y284214D01*
X867532Y284144D01*
X867918Y284053D01*
X868274Y283943D01*
X868598Y283812D01*
X868892Y283661D01*
X869159Y283486D01*
X869406Y283282D01*
X869632Y283051D01*
X869837Y282791D01*
X870022Y282502D01*
X870186Y282185D01*
X870329Y281840D01*
X870451Y281467D01*
X868804Y281178D01*
X868728Y281415D01*
X868638Y281635D01*
X868531Y281838D01*
X868410Y282024D01*
X868273Y282194D01*
X868121Y282346D01*
X867953Y282482D01*
X867770Y282601D01*
X867571Y282705D01*
X867353Y282795D01*
X867116Y282871D01*
X866862Y282933D01*
X866589Y282981D01*
X866297Y283016D01*
X865988Y283037D01*
X865660Y283043D01*
X865301Y283036D01*
X864963Y283013D01*
X864648Y282975D01*
X864355Y282921D01*
X864083Y282852D01*
X863834Y282768D01*
X863606Y282668D01*
X863400Y282553D01*
X863217Y282423D01*
X863059Y282278D01*
X862925Y282117D01*
X862815Y281942D01*
X862730Y281752D01*
X862669Y281546D01*
X862633Y281326D01*
X862620Y281090D01*
X862639Y280818D01*
X862696Y280570D01*
X862790Y280347D01*
X862923Y280149D01*
X863090Y279970D01*
X863292Y279805D01*
X863526Y279654D01*
X863794Y279518D01*
X864149Y279382D01*
X864646Y279230D01*
X865284Y279064D01*
X866063Y278883D01*
X867197Y278616D01*
X867750Y278467D01*
X868278Y278292D01*
X868779Y278087D01*
X869246Y277850D01*
X869464Y277716D01*
X869668Y277567D01*
X869856Y277405D01*
X870030Y277228D01*
X870188Y277036D01*
X870327Y276827D01*
X870448Y276602D01*
X870551Y276361D01*
X870634Y276100D01*
X870693Y275818D01*
X870728Y275513D01*
X870740Y275187D01*
X870719Y274772D01*
X870656Y274381D01*
X870552Y274015D01*
X870406Y273672D01*
X870218Y273353D01*
X869988Y273059D01*
X869717Y272788D01*
X869404Y272542D01*
X869053Y272322D01*
X868668Y272132D01*
X868249Y271971D01*
X867796Y271839D01*
X867308Y271737D01*
X866787Y271663D01*
X866232Y271620D01*
X865642Y271605D01*
G37*
G36*
X892636Y271780D02*
X884903Y271780D01*
X884903Y273120D01*
X888047Y273120D01*
X888047Y282614D01*
X885262Y280626D01*
X885262Y282115D01*
X888178Y284121D01*
X889632Y284121D01*
X889632Y273120D01*
X892636Y273120D01*
X892636Y271780D01*
G37*
G36*
X859010Y271780D02*
X851101Y271780D01*
X851101Y284121D01*
X852774Y284121D01*
X852774Y273146D01*
X859010Y273146D01*
X859010Y271780D01*
G37*
G36*
X925512Y271780D02*
X923839Y271780D01*
X923839Y284121D01*
X929033Y284121D01*
X929537Y284106D01*
X930012Y284060D01*
X930458Y283984D01*
X930874Y283878D01*
X931261Y283741D01*
X931619Y283574D01*
X931948Y283376D01*
X932247Y283149D01*
X932514Y282893D01*
X932745Y282613D01*
X932941Y282307D01*
X933101Y281977D01*
X933226Y281622D01*
X933315Y281242D01*
X933368Y280837D01*
X933386Y280407D01*
X933368Y279980D01*
X933314Y279576D01*
X933225Y279194D01*
X933100Y278835D01*
X932939Y278498D01*
X932743Y278184D01*
X932511Y277892D01*
X932243Y277622D01*
X931944Y277380D01*
X931620Y277170D01*
X931270Y276992D01*
X930895Y276847D01*
X930494Y276734D01*
X930068Y276653D01*
X929616Y276605D01*
X929138Y276588D01*
X925512Y276588D01*
X925512Y271780D01*
G37*
%LPC*%
G36*
X928901Y277911D02*
X929241Y277921D01*
X929558Y277950D01*
X929854Y277998D01*
X930128Y278066D01*
X930379Y278153D01*
X930609Y278260D01*
X930817Y278385D01*
X931003Y278531D01*
X931168Y278695D01*
X931310Y278879D01*
X931430Y279083D01*
X931529Y279305D01*
X931606Y279547D01*
X931660Y279809D01*
X931693Y280089D01*
X931704Y280390D01*
X931693Y280679D01*
X931659Y280950D01*
X931603Y281202D01*
X931525Y281436D01*
X931424Y281651D01*
X931300Y281847D01*
X931154Y282024D01*
X930986Y282183D01*
X930795Y282323D01*
X930582Y282444D01*
X930346Y282547D01*
X930088Y282631D01*
X929808Y282697D01*
X929505Y282743D01*
X929179Y282771D01*
X928831Y282781D01*
X925512Y282781D01*
X925512Y277911D01*
X928901Y277911D01*
G37*
%LPD*%
G36*
X916442Y271605D02*
X915893Y271617D01*
X915374Y271654D01*
X914884Y271715D01*
X914424Y271801D01*
X913993Y271911D01*
X913592Y272046D01*
X913221Y272205D01*
X912880Y272389D01*
X912568Y272597D01*
X912285Y272830D01*
X912033Y273087D01*
X911809Y273369D01*
X911616Y273675D01*
X911452Y274005D01*
X911318Y274361D01*
X911213Y274740D01*
X912834Y275064D01*
X912914Y274796D01*
X913013Y274545D01*
X913133Y274313D01*
X913272Y274100D01*
X913430Y273905D01*
X913609Y273729D01*
X913807Y273571D01*
X914025Y273431D01*
X914263Y273309D01*
X914521Y273203D01*
X914800Y273113D01*
X915100Y273040D01*
X915420Y272983D01*
X915761Y272942D01*
X916122Y272918D01*
X916503Y272910D01*
X916897Y272919D01*
X917267Y272945D01*
X917615Y272988D01*
X917939Y273049D01*
X918240Y273127D01*
X918518Y273223D01*
X918772Y273336D01*
X919004Y273466D01*
X919210Y273613D01*
X919389Y273777D01*
X919540Y273956D01*
X919664Y274152D01*
X919760Y274365D01*
X919829Y274593D01*
X919871Y274838D01*
X919884Y275099D01*
X919867Y275387D01*
X919815Y275647D01*
X919729Y275878D01*
X919608Y276080D01*
X919456Y276261D01*
X919277Y276424D01*
X919069Y276571D01*
X918833Y276702D01*
X918572Y276820D01*
X918286Y276928D01*
X917976Y277026D01*
X917642Y277114D01*
X916109Y277473D01*
X915422Y277635D01*
X914823Y277797D01*
X914312Y277959D01*
X913889Y278121D01*
X913530Y278288D01*
X913211Y278464D01*
X912932Y278649D01*
X912693Y278844D01*
X912487Y279052D01*
X912307Y279276D01*
X912152Y279518D01*
X912023Y279777D01*
X911922Y280054D01*
X911849Y280350D01*
X911806Y280667D01*
X911791Y281003D01*
X911810Y281388D01*
X911867Y281750D01*
X911962Y282089D01*
X912095Y282406D01*
X912265Y282700D01*
X912474Y282972D01*
X912720Y283220D01*
X913004Y283446D01*
X913324Y283648D01*
X913676Y283822D01*
X914061Y283969D01*
X914479Y284090D01*
X914930Y284184D01*
X915413Y284251D01*
X915929Y284291D01*
X916477Y284305D01*
X916987Y284295D01*
X917466Y284264D01*
X917915Y284214D01*
X918332Y284144D01*
X918718Y284053D01*
X919074Y283943D01*
X919398Y283812D01*
X919692Y283661D01*
X919959Y283486D01*
X920206Y283282D01*
X920432Y283051D01*
X920637Y282791D01*
X920822Y282502D01*
X920986Y282185D01*
X921129Y281840D01*
X921251Y281467D01*
X919604Y281178D01*
X919528Y281415D01*
X919438Y281635D01*
X919331Y281838D01*
X919210Y282024D01*
X919073Y282194D01*
X918921Y282346D01*
X918753Y282482D01*
X918570Y282601D01*
X918371Y282705D01*
X918153Y282795D01*
X917916Y282871D01*
X917662Y282933D01*
X917389Y282981D01*
X917097Y283016D01*
X916788Y283037D01*
X916460Y283043D01*
X916101Y283036D01*
X915763Y283013D01*
X915448Y282975D01*
X915155Y282921D01*
X914883Y282852D01*
X914634Y282768D01*
X914406Y282668D01*
X914200Y282553D01*
X914017Y282423D01*
X913859Y282278D01*
X913725Y282117D01*
X913615Y281942D01*
X913530Y281752D01*
X913469Y281546D01*
X913433Y281326D01*
X913420Y281090D01*
X913439Y280818D01*
X913496Y280570D01*
X913590Y280347D01*
X913723Y280149D01*
X913890Y279970D01*
X914092Y279805D01*
X914326Y279654D01*
X914594Y279518D01*
X914949Y279382D01*
X915446Y279230D01*
X916084Y279064D01*
X916863Y278883D01*
X917997Y278616D01*
X918550Y278467D01*
X919078Y278292D01*
X919579Y278087D01*
X920046Y277850D01*
X920264Y277716D01*
X920468Y277567D01*
X920656Y277405D01*
X920830Y277228D01*
X920988Y277036D01*
X921127Y276827D01*
X921248Y276602D01*
X921351Y276361D01*
X921434Y276100D01*
X921493Y275818D01*
X921528Y275513D01*
X921540Y275187D01*
X921519Y274772D01*
X921456Y274381D01*
X921352Y274015D01*
X921206Y273672D01*
X921018Y273353D01*
X920788Y273059D01*
X920517Y272788D01*
X920204Y272542D01*
X919853Y272322D01*
X919468Y272132D01*
X919049Y271971D01*
X918596Y271839D01*
X918108Y271737D01*
X917587Y271663D01*
X917032Y271620D01*
X916442Y271605D01*
G37*
G36*
X943410Y271780D02*
X935238Y271780D01*
X935238Y272892D01*
X935474Y273390D01*
X935734Y273857D01*
X936019Y274294D01*
X936329Y274701D01*
X936655Y275084D01*
X936989Y275448D01*
X937331Y275793D01*
X937682Y276120D01*
X938388Y276732D01*
X939088Y277298D01*
X939750Y277841D01*
X940345Y278384D01*
X940611Y278659D01*
X940852Y278940D01*
X941065Y279228D01*
X941251Y279523D01*
X941402Y279830D01*
X941511Y280158D01*
X941575Y280505D01*
X941597Y280871D01*
X941588Y281118D01*
X941560Y281351D01*
X941513Y281569D01*
X941448Y281773D01*
X941364Y281963D01*
X941262Y282139D01*
X941141Y282301D01*
X941002Y282448D01*
X940845Y282579D01*
X940675Y282693D01*
X940490Y282789D01*
X940290Y282868D01*
X940076Y282930D01*
X939847Y282973D01*
X939604Y283000D01*
X939346Y283008D01*
X939100Y283000D01*
X938865Y282974D01*
X938641Y282931D01*
X938428Y282872D01*
X938226Y282795D01*
X938035Y282701D01*
X937855Y282589D01*
X937686Y282461D01*
X937532Y282317D01*
X937394Y282160D01*
X937273Y281988D01*
X937169Y281803D01*
X937081Y281604D01*
X937011Y281391D01*
X936957Y281164D01*
X936920Y280924D01*
X935308Y281073D01*
X935366Y281433D01*
X935453Y281775D01*
X935567Y282098D01*
X935710Y282402D01*
X935882Y282687D01*
X936081Y282953D01*
X936309Y283200D01*
X936565Y283429D01*
X936845Y283634D01*
X937145Y283812D01*
X937463Y283963D01*
X937801Y284086D01*
X938159Y284182D01*
X938535Y284250D01*
X938931Y284291D01*
X939346Y284305D01*
X939799Y284291D01*
X940225Y284250D01*
X940624Y284181D01*
X940996Y284085D01*
X941341Y283961D01*
X941659Y283810D01*
X941950Y283631D01*
X942215Y283424D01*
X942450Y283193D01*
X942653Y282938D01*
X942826Y282660D01*
X942967Y282359D01*
X943076Y282035D01*
X943155Y281688D01*
X943202Y281317D01*
X943217Y280924D01*
X943197Y280565D01*
X943135Y280208D01*
X943033Y279852D01*
X942889Y279496D01*
X942705Y279142D01*
X942481Y278787D01*
X942216Y278432D01*
X941912Y278077D01*
X941514Y277674D01*
X940969Y277173D01*
X940275Y276575D01*
X939434Y275879D01*
X938956Y275477D01*
X938529Y275096D01*
X938154Y274735D01*
X937831Y274394D01*
X937554Y274067D01*
X937319Y273745D01*
X937125Y273430D01*
X936973Y273120D01*
X943410Y273120D01*
X943410Y271780D01*
G37*
G36*
X909810Y271780D02*
X901901Y271780D01*
X901901Y284121D01*
X903574Y284121D01*
X903574Y273146D01*
X909810Y273146D01*
X909810Y271780D01*
G37*
G36*
X555000Y472603D02*
X542659Y472603D01*
X542659Y478410D01*
X542674Y478916D01*
X542718Y479392D01*
X542790Y479839D01*
X542892Y480257D01*
X543024Y480644D01*
X543184Y481002D01*
X543373Y481330D01*
X543592Y481628D01*
X543837Y481894D01*
X544104Y482125D01*
X544394Y482320D01*
X544708Y482479D01*
X545044Y482603D01*
X545403Y482692D01*
X545784Y482745D01*
X546189Y482763D01*
X546526Y482750D01*
X546849Y482713D01*
X547159Y482650D01*
X547455Y482562D01*
X547737Y482450D01*
X548005Y482312D01*
X548260Y482149D01*
X548501Y481961D01*
X548725Y481751D01*
X548927Y481522D01*
X549107Y481275D01*
X549173Y481164D01*
X549265Y481008D01*
X549402Y480722D01*
X549518Y480417D01*
X549611Y480093D01*
X549684Y479750D01*
X551947Y481241D01*
X555000Y483253D01*
X555000Y481326D01*
X549876Y478121D01*
X549876Y474276D01*
X555000Y474276D01*
X555000Y472603D01*
G37*
%LPC*%
G36*
X548554Y474276D02*
X548554Y478313D01*
X548544Y478635D01*
X548515Y478937D01*
X548467Y479221D01*
X548399Y479486D01*
X548313Y479732D01*
X548206Y479960D01*
X548081Y480168D01*
X547936Y480358D01*
X547774Y480528D01*
X547597Y480675D01*
X547404Y480799D01*
X547195Y480900D01*
X546971Y480979D01*
X546732Y481036D01*
X546477Y481070D01*
X546206Y481081D01*
X545945Y481070D01*
X545700Y481035D01*
X545471Y480978D01*
X545257Y480898D01*
X545060Y480795D01*
X544879Y480670D01*
X544713Y480521D01*
X544564Y480350D01*
X544432Y480157D01*
X544317Y479944D01*
X544220Y479711D01*
X544141Y479457D01*
X544079Y479184D01*
X544035Y478890D01*
X544008Y478577D01*
X543999Y478243D01*
X543999Y474276D01*
X548554Y474276D01*
G37*
%LPD*%
G36*
X555000Y485466D02*
X553660Y485466D01*
X553660Y488611D01*
X544166Y488611D01*
X546154Y485825D01*
X544665Y485825D01*
X542659Y488742D01*
X542659Y490196D01*
X553660Y490196D01*
X553660Y493200D01*
X555000Y493200D01*
X555000Y485466D01*
G37*
G36*
X618500Y472603D02*
X606159Y472603D01*
X606159Y478410D01*
X606174Y478916D01*
X606218Y479392D01*
X606290Y479839D01*
X606392Y480257D01*
X606524Y480644D01*
X606684Y481002D01*
X606873Y481330D01*
X607092Y481628D01*
X607337Y481894D01*
X607604Y482125D01*
X607894Y482320D01*
X608208Y482479D01*
X608544Y482603D01*
X608903Y482692D01*
X609284Y482745D01*
X609689Y482763D01*
X610026Y482750D01*
X610349Y482713D01*
X610659Y482650D01*
X610955Y482562D01*
X611237Y482450D01*
X611505Y482312D01*
X611760Y482149D01*
X612001Y481961D01*
X612225Y481751D01*
X612427Y481522D01*
X612607Y481275D01*
X612673Y481164D01*
X612765Y481008D01*
X612902Y480722D01*
X613018Y480417D01*
X613111Y480093D01*
X613184Y479750D01*
X615447Y481241D01*
X618500Y483253D01*
X618500Y481326D01*
X613376Y478121D01*
X613376Y474276D01*
X618500Y474276D01*
X618500Y472603D01*
G37*
%LPC*%
G36*
X612054Y474276D02*
X612054Y478313D01*
X612044Y478635D01*
X612015Y478937D01*
X611967Y479221D01*
X611899Y479486D01*
X611813Y479732D01*
X611706Y479960D01*
X611581Y480168D01*
X611436Y480358D01*
X611274Y480528D01*
X611097Y480675D01*
X610904Y480799D01*
X610695Y480900D01*
X610471Y480979D01*
X610232Y481036D01*
X609977Y481070D01*
X609706Y481081D01*
X609445Y481070D01*
X609200Y481035D01*
X608971Y480978D01*
X608757Y480898D01*
X608560Y480795D01*
X608379Y480670D01*
X608213Y480521D01*
X608064Y480350D01*
X607932Y480157D01*
X607817Y479944D01*
X607720Y479711D01*
X607641Y479457D01*
X607579Y479184D01*
X607535Y478890D01*
X607508Y478577D01*
X607499Y478243D01*
X607499Y474276D01*
X612054Y474276D01*
G37*
%LPD*%
G36*
X618500Y485002D02*
X617388Y485002D01*
X616890Y485238D01*
X616423Y485498D01*
X615986Y485783D01*
X615579Y486093D01*
X615196Y486419D01*
X614832Y486753D01*
X614487Y487095D01*
X614160Y487446D01*
X613548Y488152D01*
X612982Y488852D01*
X612439Y489514D01*
X611896Y490108D01*
X611621Y490375D01*
X611340Y490615D01*
X611052Y490828D01*
X610757Y491015D01*
X610450Y491166D01*
X610122Y491274D01*
X609775Y491339D01*
X609409Y491361D01*
X609162Y491352D01*
X608929Y491324D01*
X608711Y491277D01*
X608507Y491212D01*
X608317Y491128D01*
X608141Y491026D01*
X607979Y490905D01*
X607832Y490765D01*
X607701Y490609D01*
X607587Y490438D01*
X607491Y490253D01*
X607412Y490054D01*
X607350Y489839D01*
X607307Y489611D01*
X607280Y489368D01*
X607272Y489110D01*
X607280Y488864D01*
X607306Y488628D01*
X607349Y488404D01*
X607408Y488191D01*
X607485Y487989D01*
X607579Y487799D01*
X607691Y487619D01*
X607819Y487450D01*
X607963Y487295D01*
X608120Y487158D01*
X608292Y487037D01*
X608477Y486932D01*
X608676Y486845D01*
X608889Y486774D01*
X609116Y486721D01*
X609356Y486684D01*
X609207Y485072D01*
X608847Y485130D01*
X608505Y485216D01*
X608182Y485331D01*
X607878Y485474D01*
X607593Y485645D01*
X607327Y485845D01*
X607080Y486073D01*
X606851Y486329D01*
X606646Y486609D01*
X606468Y486908D01*
X606317Y487227D01*
X606194Y487565D01*
X606098Y487922D01*
X606030Y488299D01*
X605989Y488695D01*
X605975Y489110D01*
X605989Y489563D01*
X606030Y489989D01*
X606099Y490388D01*
X606195Y490760D01*
X606319Y491105D01*
X606470Y491423D01*
X606649Y491714D01*
X606856Y491978D01*
X607087Y492213D01*
X607342Y492417D01*
X607620Y492589D01*
X607921Y492730D01*
X608245Y492840D01*
X608592Y492918D01*
X608963Y492965D01*
X609356Y492981D01*
X609715Y492961D01*
X610072Y492899D01*
X610428Y492796D01*
X610784Y492653D01*
X611138Y492469D01*
X611493Y492244D01*
X611848Y491980D01*
X612203Y491676D01*
X612606Y491278D01*
X613107Y490732D01*
X613705Y490039D01*
X614401Y489197D01*
X614803Y488720D01*
X615184Y488293D01*
X615545Y487918D01*
X615886Y487595D01*
X616213Y487318D01*
X616535Y487082D01*
X616850Y486889D01*
X617160Y486736D01*
X617160Y493174D01*
X618500Y493174D01*
X618500Y485002D01*
G37*
G36*
X571649Y678723D02*
X570475Y679117D01*
X571413Y681456D01*
X568811Y681351D01*
X568811Y682542D01*
X571395Y682428D01*
X570493Y684740D01*
X571649Y685134D01*
X572288Y682664D01*
X574478Y684285D01*
X575109Y683242D01*
X572849Y681929D01*
X575091Y680562D01*
X574461Y679520D01*
X572288Y681175D01*
X571649Y678723D01*
G37*
G36*
X606403Y696070D02*
X606403Y697813D01*
X614242Y700028D01*
X615735Y700407D01*
X617273Y700755D01*
X615171Y701241D01*
X614196Y701497D01*
X612409Y701987D01*
X606403Y703672D01*
X606403Y705275D01*
X614084Y707421D01*
X615823Y707859D01*
X617273Y708191D01*
X616966Y708270D01*
X615324Y708656D01*
X612776Y709345D01*
X606403Y711117D01*
X606403Y712860D01*
X618744Y709225D01*
X618744Y707228D01*
X610905Y705091D01*
X609878Y704833D01*
X608269Y704478D01*
X609968Y704092D01*
X612504Y703416D01*
X618744Y701701D01*
X618744Y699704D01*
X606403Y696070D01*
G37*
G36*
X615784Y684837D02*
X615460Y686457D01*
X615728Y686537D01*
X615979Y686636D01*
X616211Y686756D01*
X616424Y686895D01*
X616619Y687054D01*
X616796Y687232D01*
X616954Y687430D01*
X617093Y687648D01*
X617215Y687886D01*
X617321Y688145D01*
X617411Y688424D01*
X617484Y688723D01*
X617541Y689043D01*
X617582Y689384D01*
X617606Y689745D01*
X617614Y690127D01*
X617605Y690520D01*
X617579Y690891D01*
X617536Y691238D01*
X617475Y691562D01*
X617397Y691863D01*
X617301Y692141D01*
X617188Y692396D01*
X617058Y692627D01*
X616911Y692834D01*
X616747Y693012D01*
X616568Y693164D01*
X616372Y693287D01*
X616159Y693384D01*
X615931Y693452D01*
X615686Y693494D01*
X615425Y693508D01*
X615137Y693490D01*
X614877Y693439D01*
X614646Y693352D01*
X614444Y693232D01*
X614263Y693080D01*
X614100Y692900D01*
X613953Y692692D01*
X613822Y692456D01*
X613704Y692195D01*
X613596Y691909D01*
X613498Y691599D01*
X613410Y691265D01*
X613051Y689733D01*
X612889Y689045D01*
X612727Y688446D01*
X612565Y687935D01*
X612403Y687512D01*
X612236Y687153D01*
X612060Y686835D01*
X611875Y686556D01*
X611680Y686317D01*
X611473Y686111D01*
X611248Y685930D01*
X611006Y685776D01*
X610747Y685647D01*
X610470Y685545D01*
X610174Y685473D01*
X609857Y685429D01*
X609521Y685415D01*
X609136Y685434D01*
X608774Y685490D01*
X608435Y685585D01*
X608118Y685718D01*
X607824Y685888D01*
X607552Y686097D01*
X607304Y686343D01*
X607078Y686628D01*
X606876Y686947D01*
X606702Y687300D01*
X606555Y687685D01*
X606434Y688102D01*
X606340Y688553D01*
X606273Y689036D01*
X606233Y689552D01*
X606219Y690100D01*
X606229Y690610D01*
X606260Y691090D01*
X606310Y691538D01*
X606380Y691955D01*
X606471Y692341D01*
X606581Y692697D01*
X606712Y693021D01*
X606863Y693315D01*
X607038Y693582D01*
X607242Y693829D01*
X607473Y694055D01*
X607733Y694261D01*
X608022Y694445D01*
X608339Y694609D01*
X608684Y694752D01*
X609057Y694874D01*
X609346Y693227D01*
X609109Y693152D01*
X608889Y693061D01*
X608686Y692955D01*
X608500Y692833D01*
X608330Y692696D01*
X608178Y692544D01*
X608042Y692377D01*
X607923Y692194D01*
X607819Y691994D01*
X607729Y691776D01*
X607653Y691540D01*
X607591Y691285D01*
X607543Y691012D01*
X607508Y690721D01*
X607487Y690411D01*
X607481Y690083D01*
X607488Y689724D01*
X607511Y689387D01*
X607550Y689071D01*
X607603Y688778D01*
X607672Y688506D01*
X607756Y688257D01*
X607856Y688029D01*
X607971Y687823D01*
X608101Y687641D01*
X608246Y687482D01*
X608407Y687348D01*
X608582Y687239D01*
X608772Y687153D01*
X608978Y687092D01*
X609198Y687056D01*
X609434Y687044D01*
X609706Y687063D01*
X609954Y687119D01*
X610177Y687214D01*
X610375Y687346D01*
X610554Y687514D01*
X610719Y687715D01*
X610870Y687949D01*
X611006Y688217D01*
X611142Y688573D01*
X611294Y689069D01*
X611460Y689707D01*
X611641Y690486D01*
X611908Y691620D01*
X612057Y692173D01*
X612232Y692702D01*
X612437Y693202D01*
X612674Y693670D01*
X612808Y693888D01*
X612957Y694091D01*
X613119Y694280D01*
X613296Y694453D01*
X613488Y694611D01*
X613697Y694750D01*
X613922Y694871D01*
X614163Y694975D01*
X614424Y695057D01*
X614706Y695116D01*
X615011Y695151D01*
X615337Y695163D01*
X615752Y695142D01*
X616143Y695079D01*
X616510Y694975D01*
X616852Y694829D01*
X617171Y694641D01*
X617465Y694412D01*
X617736Y694140D01*
X617982Y693827D01*
X618202Y693476D01*
X618392Y693091D01*
X618553Y692672D01*
X618685Y692219D01*
X618787Y691732D01*
X618861Y691210D01*
X618905Y690655D01*
X618919Y690065D01*
X618907Y689516D01*
X618870Y688997D01*
X618809Y688507D01*
X618723Y688047D01*
X618613Y687617D01*
X618478Y687216D01*
X618319Y686844D01*
X618135Y686503D01*
X617927Y686191D01*
X617694Y685909D01*
X617437Y685656D01*
X617155Y685433D01*
X616849Y685239D01*
X616519Y685075D01*
X616163Y684941D01*
X615784Y684837D01*
G37*
G36*
X618744Y714295D02*
X617404Y714295D01*
X617404Y717439D01*
X607910Y717439D01*
X609898Y714654D01*
X608409Y714654D01*
X606403Y717570D01*
X606403Y719024D01*
X617404Y719024D01*
X617404Y722028D01*
X618744Y722028D01*
X618744Y714295D01*
G37*
G36*
X612569Y760029D02*
X611799Y760045D01*
X611079Y760094D01*
X610409Y760175D01*
X609788Y760289D01*
X609218Y760435D01*
X608697Y760613D01*
X608226Y760824D01*
X607805Y761067D01*
X607433Y761345D01*
X607111Y761661D01*
X606839Y762015D01*
X606616Y762406D01*
X606442Y762835D01*
X606374Y763063D01*
X606318Y763301D01*
X606275Y763549D01*
X606244Y763805D01*
X606226Y764072D01*
X606219Y764347D01*
X606226Y764615D01*
X606244Y764875D01*
X606276Y765125D01*
X606319Y765366D01*
X606376Y765599D01*
X606445Y765822D01*
X606620Y766242D01*
X606845Y766627D01*
X607121Y766976D01*
X607446Y767289D01*
X607822Y767566D01*
X608247Y767809D01*
X608720Y768020D01*
X609241Y768198D01*
X609810Y768344D01*
X610428Y768458D01*
X611093Y768539D01*
X611807Y768588D01*
X612569Y768604D01*
X613319Y768587D01*
X614024Y768536D01*
X614682Y768450D01*
X615295Y768331D01*
X615863Y768178D01*
X616384Y767990D01*
X616860Y767769D01*
X617290Y767513D01*
X617672Y767225D01*
X618003Y766903D01*
X618283Y766550D01*
X618512Y766163D01*
X618690Y765745D01*
X618817Y765294D01*
X618862Y765056D01*
X618894Y764810D01*
X618913Y764557D01*
X618919Y764295D01*
X618913Y764033D01*
X618894Y763779D01*
X618862Y763534D01*
X618818Y763297D01*
X618691Y762847D01*
X618514Y762431D01*
X618286Y762048D01*
X618008Y761698D01*
X617679Y761381D01*
X617299Y761098D01*
X616871Y760847D01*
X616396Y760630D01*
X615874Y760447D01*
X615306Y760296D01*
X614692Y760179D01*
X614031Y760096D01*
X613323Y760046D01*
X612569Y760029D01*
G37*
%LPC*%
G36*
X612569Y761623D02*
X613204Y761633D01*
X613795Y761663D01*
X614342Y761714D01*
X614844Y761784D01*
X615303Y761875D01*
X615717Y761985D01*
X616088Y762116D01*
X616414Y762267D01*
X616700Y762440D01*
X616947Y762636D01*
X617156Y762856D01*
X617327Y763100D01*
X617460Y763368D01*
X617556Y763659D01*
X617613Y763974D01*
X617632Y764312D01*
X617612Y764649D01*
X617554Y764962D01*
X617457Y765252D01*
X617321Y765519D01*
X617146Y765762D01*
X616932Y765982D01*
X616679Y766179D01*
X616388Y766353D01*
X616056Y766505D01*
X615683Y766636D01*
X615268Y766748D01*
X614811Y766839D01*
X614313Y766910D01*
X613774Y766960D01*
X613192Y766991D01*
X612569Y767001D01*
X611924Y766991D01*
X611326Y766962D01*
X610773Y766914D01*
X610266Y766847D01*
X609805Y766760D01*
X609390Y766654D01*
X609021Y766528D01*
X608698Y766384D01*
X608417Y766217D01*
X608173Y766025D01*
X607967Y765808D01*
X607798Y765566D01*
X607667Y765299D01*
X607573Y765007D01*
X607517Y764689D01*
X607498Y764347D01*
X607517Y763996D01*
X607572Y763671D01*
X607664Y763372D01*
X607794Y763098D01*
X607960Y762850D01*
X608163Y762627D01*
X608403Y762430D01*
X608680Y762258D01*
X609000Y762109D01*
X609367Y761980D01*
X609782Y761871D01*
X610244Y761782D01*
X610754Y761713D01*
X611311Y761663D01*
X611916Y761633D01*
X612569Y761623D01*
G37*
%LPD*%
G36*
X615319Y710264D02*
X615023Y710275D01*
X614739Y710308D01*
X614467Y710362D01*
X614207Y710437D01*
X613959Y710535D01*
X613723Y710653D01*
X613499Y710794D01*
X613287Y710956D01*
X613092Y711135D01*
X612916Y711326D01*
X612761Y711529D01*
X612626Y711744D01*
X612512Y711972D01*
X612417Y712211D01*
X612343Y712462D01*
X612289Y712725D01*
X612254Y712725D01*
X612186Y712480D01*
X612101Y712248D01*
X611999Y712030D01*
X611880Y711824D01*
X611743Y711632D01*
X611589Y711454D01*
X611418Y711288D01*
X611229Y711136D01*
X611028Y710999D01*
X610818Y710881D01*
X610600Y710781D01*
X610373Y710699D01*
X610138Y710635D01*
X609894Y710590D01*
X609642Y710562D01*
X609381Y710553D01*
X609037Y710570D01*
X608709Y710619D01*
X608399Y710702D01*
X608105Y710817D01*
X607827Y710966D01*
X607566Y711147D01*
X607322Y711361D01*
X607095Y711609D01*
X606890Y711884D01*
X606712Y712182D01*
X606561Y712502D01*
X606438Y712845D01*
X606342Y713210D01*
X606274Y713598D01*
X606233Y714009D01*
X606219Y714442D01*
X606233Y714886D01*
X606273Y715305D01*
X606340Y715701D01*
X606434Y716072D01*
X606555Y716420D01*
X606702Y716744D01*
X606876Y717043D01*
X607078Y717319D01*
X607302Y717567D01*
X607545Y717781D01*
X607806Y717962D01*
X608087Y718111D01*
X608387Y718226D01*
X608705Y718309D01*
X609042Y718358D01*
X609399Y718375D01*
X609659Y718366D01*
X609912Y718338D01*
X610155Y718292D01*
X610391Y718228D01*
X610617Y718145D01*
X610836Y718045D01*
X611045Y717925D01*
X611247Y717788D01*
X611435Y717634D01*
X611604Y717468D01*
X611619Y717450D01*
X611755Y717287D01*
X611888Y717094D01*
X612003Y716887D01*
X612099Y716666D01*
X612177Y716432D01*
X612236Y716185D01*
X612271Y716185D01*
X612329Y716472D01*
X612406Y716743D01*
X612503Y716998D01*
X612619Y717236D01*
X612754Y717458D01*
X612908Y717663D01*
X613081Y717852D01*
X613237Y717991D01*
X613274Y718024D01*
X613483Y718178D01*
X613705Y718312D01*
X613939Y718425D01*
X614186Y718517D01*
X614446Y718589D01*
X614719Y718640D01*
X615004Y718671D01*
X615302Y718681D01*
X615717Y718664D01*
X616109Y718613D01*
X616477Y718528D01*
X616822Y718410D01*
X617143Y718257D01*
X617440Y718070D01*
X617714Y717850D01*
X617965Y717595D01*
X618188Y717309D01*
X618382Y716993D01*
X618546Y716648D01*
X618681Y716273D01*
X618785Y715868D01*
X618860Y715434D01*
X618904Y714970D01*
X618919Y714477D01*
X618905Y713996D01*
X618861Y713541D01*
X618787Y713114D01*
X618685Y712713D01*
X618553Y712340D01*
X618392Y711993D01*
X618202Y711674D01*
X617982Y711381D01*
X617735Y711119D01*
X617464Y710892D01*
X617168Y710700D01*
X616848Y710543D01*
X616503Y710421D01*
X616133Y710334D01*
X615738Y710282D01*
X615319Y710264D01*
G37*
%LPC*%
G36*
X615188Y711893D02*
X615497Y711904D01*
X615785Y711934D01*
X616054Y711985D01*
X616303Y712056D01*
X616532Y712147D01*
X616741Y712259D01*
X616930Y712391D01*
X617100Y712544D01*
X617249Y712716D01*
X617378Y712909D01*
X617488Y713123D01*
X617578Y713357D01*
X617647Y713611D01*
X617697Y713885D01*
X617727Y714180D01*
X617737Y714495D01*
X617727Y714806D01*
X617698Y715097D01*
X617650Y715368D01*
X617582Y715618D01*
X617496Y715847D01*
X617389Y716056D01*
X617264Y716245D01*
X617119Y716413D01*
X616954Y716561D01*
X616765Y716689D01*
X616553Y716797D01*
X616319Y716886D01*
X616062Y716955D01*
X615782Y717004D01*
X615479Y717034D01*
X615153Y717043D01*
X614875Y717033D01*
X614615Y717001D01*
X614372Y716947D01*
X614147Y716873D01*
X613939Y716777D01*
X613750Y716659D01*
X613578Y716520D01*
X613423Y716360D01*
X613287Y716181D01*
X613168Y715984D01*
X613068Y715770D01*
X612986Y715539D01*
X612923Y715291D01*
X612877Y715025D01*
X612850Y714742D01*
X612841Y714442D01*
X612851Y714150D01*
X612880Y713875D01*
X612929Y713616D01*
X612997Y713374D01*
X613085Y713147D01*
X613193Y712938D01*
X613320Y712745D01*
X613467Y712568D01*
X613631Y712410D01*
X613809Y712273D01*
X614003Y712157D01*
X614210Y712062D01*
X614433Y711988D01*
X614670Y711936D01*
X614922Y711904D01*
X615188Y711893D01*
G37*
G36*
X609486Y712165D02*
X609743Y712174D01*
X609985Y712202D01*
X610210Y712249D01*
X610420Y712315D01*
X610614Y712399D01*
X610793Y712502D01*
X610955Y712624D01*
X611102Y712765D01*
X611233Y712923D01*
X611346Y713096D01*
X611441Y713284D01*
X611519Y713488D01*
X611580Y713708D01*
X611624Y713943D01*
X611650Y714194D01*
X611658Y714460D01*
X611650Y714729D01*
X611626Y714983D01*
X611586Y715219D01*
X611530Y715439D01*
X611458Y715643D01*
X611370Y715830D01*
X611266Y716000D01*
X611146Y716154D01*
X611008Y716291D01*
X610850Y716409D01*
X610672Y716509D01*
X610475Y716591D01*
X610257Y716655D01*
X610020Y716700D01*
X609763Y716728D01*
X609486Y716737D01*
X609233Y716728D01*
X608996Y716701D01*
X608775Y716656D01*
X608570Y716593D01*
X608382Y716513D01*
X608211Y716414D01*
X608055Y716298D01*
X607916Y716163D01*
X607794Y716011D01*
X607687Y715840D01*
X607597Y715652D01*
X607524Y715446D01*
X607467Y715222D01*
X607426Y714980D01*
X607401Y714720D01*
X607393Y714442D01*
X607401Y714172D01*
X607426Y713919D01*
X607467Y713682D01*
X607524Y713462D01*
X607598Y713259D01*
X607689Y713072D01*
X607795Y712901D01*
X607918Y712747D01*
X608058Y712611D01*
X608214Y712492D01*
X608385Y712392D01*
X608573Y712310D01*
X608777Y712247D01*
X608997Y712201D01*
X609234Y712174D01*
X609486Y712165D01*
G37*
%LPD*%
G36*
X610371Y740232D02*
X609900Y740249D01*
X609455Y740300D01*
X609036Y740385D01*
X608642Y740503D01*
X608275Y740656D01*
X607933Y740843D01*
X607617Y741063D01*
X607327Y741318D01*
X607068Y741603D01*
X606843Y741914D01*
X606652Y742252D01*
X606496Y742616D01*
X606375Y743007D01*
X606289Y743425D01*
X606237Y743869D01*
X606219Y744340D01*
X606225Y744593D01*
X606243Y744839D01*
X606315Y745306D01*
X606434Y745743D01*
X606600Y746148D01*
X606815Y746522D01*
X607077Y746865D01*
X607386Y747177D01*
X607743Y747458D01*
X608148Y747706D01*
X608601Y747921D01*
X609102Y748103D01*
X609650Y748252D01*
X610247Y748368D01*
X610891Y748451D01*
X611584Y748501D01*
X612324Y748517D01*
X613096Y748499D01*
X613822Y748445D01*
X614502Y748354D01*
X615136Y748227D01*
X615723Y748064D01*
X616265Y747865D01*
X616761Y747629D01*
X617211Y747357D01*
X617612Y747051D01*
X617958Y746715D01*
X618252Y746348D01*
X618492Y745950D01*
X618679Y745521D01*
X618752Y745295D01*
X618812Y745062D01*
X618859Y744821D01*
X618892Y744572D01*
X618912Y744315D01*
X618919Y744051D01*
X618910Y743698D01*
X618881Y743364D01*
X618834Y743047D01*
X618767Y742749D01*
X618681Y742468D01*
X618577Y742206D01*
X618453Y741961D01*
X618310Y741734D01*
X618147Y741524D01*
X617959Y741329D01*
X617749Y741150D01*
X617515Y740986D01*
X617257Y740838D01*
X616976Y740705D01*
X616672Y740588D01*
X616344Y740486D01*
X616108Y741992D01*
X616469Y742128D01*
X616782Y742300D01*
X617047Y742507D01*
X617264Y742750D01*
X617432Y743028D01*
X617553Y743342D01*
X617625Y743692D01*
X617643Y743880D01*
X617649Y744077D01*
X617630Y744407D01*
X617570Y744717D01*
X617472Y745009D01*
X617334Y745281D01*
X617157Y745534D01*
X616940Y745768D01*
X616684Y745983D01*
X616388Y746179D01*
X616056Y746354D01*
X615690Y746507D01*
X615291Y746637D01*
X614857Y746746D01*
X614391Y746832D01*
X613890Y746897D01*
X613356Y746939D01*
X612788Y746958D01*
X612980Y746863D01*
X613163Y746752D01*
X613336Y746625D01*
X613499Y746483D01*
X613652Y746325D01*
X613796Y746152D01*
X613930Y745963D01*
X614054Y745758D01*
X614166Y745543D01*
X614263Y745323D01*
X614345Y745098D01*
X614412Y744867D01*
X614464Y744631D01*
X614501Y744390D01*
X614524Y744144D01*
X614531Y743893D01*
X614513Y743487D01*
X614460Y743102D01*
X614371Y742738D01*
X614247Y742395D01*
X614086Y742073D01*
X613891Y741771D01*
X613659Y741490D01*
X613393Y741230D01*
X613096Y740996D01*
X612777Y740793D01*
X612434Y740622D01*
X612068Y740481D01*
X611678Y740372D01*
X611266Y740294D01*
X610830Y740247D01*
X610371Y740232D01*
G37*
%LPC*%
G36*
X610371Y741835D02*
X610699Y741845D01*
X611010Y741876D01*
X611303Y741927D01*
X611578Y741999D01*
X611836Y742091D01*
X612076Y742204D01*
X612299Y742338D01*
X612504Y742492D01*
X612687Y742663D01*
X612847Y742849D01*
X612981Y743049D01*
X613091Y743264D01*
X613177Y743494D01*
X613238Y743738D01*
X613275Y743996D01*
X613287Y744270D01*
X613268Y744605D01*
X613210Y744929D01*
X613113Y745240D01*
X612977Y745539D01*
X612805Y745817D01*
X612601Y746064D01*
X612365Y746279D01*
X612096Y746464D01*
X611802Y746611D01*
X611488Y746716D01*
X611154Y746780D01*
X610800Y746801D01*
X610437Y746790D01*
X610092Y746758D01*
X609765Y746705D01*
X609457Y746630D01*
X609166Y746534D01*
X608894Y746416D01*
X608640Y746278D01*
X608405Y746118D01*
X608192Y745940D01*
X608008Y745747D01*
X607852Y745540D01*
X607725Y745318D01*
X607626Y745082D01*
X607555Y744832D01*
X607512Y744567D01*
X607498Y744287D01*
X607510Y744010D01*
X607547Y743748D01*
X607607Y743501D01*
X607692Y743269D01*
X607801Y743052D01*
X607934Y742850D01*
X608092Y742663D01*
X608273Y742492D01*
X608476Y742338D01*
X608695Y742204D01*
X608932Y742091D01*
X609185Y741999D01*
X609456Y741927D01*
X609744Y741876D01*
X610049Y741845D01*
X610371Y741835D01*
G37*
%LPD*%
G36*
X615985Y730140D02*
X615801Y731735D01*
X616023Y731803D01*
X616230Y731884D01*
X616423Y731977D01*
X616602Y732082D01*
X616766Y732200D01*
X616917Y732329D01*
X617053Y732471D01*
X617174Y732626D01*
X617281Y732792D01*
X617374Y732971D01*
X617453Y733162D01*
X617517Y733365D01*
X617567Y733581D01*
X617603Y733809D01*
X617625Y734049D01*
X617632Y734301D01*
X617620Y734610D01*
X617584Y734901D01*
X617524Y735176D01*
X617440Y735433D01*
X617332Y735673D01*
X617201Y735895D01*
X617045Y736101D01*
X616865Y736289D01*
X616665Y736457D01*
X616446Y736603D01*
X616210Y736727D01*
X615956Y736828D01*
X615683Y736906D01*
X615393Y736962D01*
X615085Y736996D01*
X614759Y737007D01*
X614475Y736996D01*
X614204Y736962D01*
X613948Y736906D01*
X613706Y736827D01*
X613477Y736725D01*
X613263Y736601D01*
X613062Y736454D01*
X612876Y736285D01*
X612707Y736096D01*
X612562Y735892D01*
X612438Y735672D01*
X612337Y735436D01*
X612259Y735185D01*
X612202Y734917D01*
X612169Y734634D01*
X612158Y734336D01*
X612170Y734022D01*
X612208Y733718D01*
X612271Y733426D01*
X612359Y733145D01*
X612477Y732869D01*
X612631Y732593D01*
X612819Y732317D01*
X613042Y732041D01*
X613042Y730500D01*
X606403Y730911D01*
X606403Y737927D01*
X607743Y737927D01*
X607743Y732348D01*
X611658Y732111D01*
X611474Y732375D01*
X611314Y732655D01*
X611178Y732950D01*
X611067Y733261D01*
X610981Y733587D01*
X610919Y733929D01*
X610882Y734287D01*
X610870Y734660D01*
X610887Y735104D01*
X610937Y735524D01*
X611020Y735922D01*
X611137Y736297D01*
X611287Y736648D01*
X611471Y736976D01*
X611688Y737281D01*
X611939Y737563D01*
X612216Y737817D01*
X612513Y738037D01*
X612831Y738222D01*
X613169Y738375D01*
X613527Y738493D01*
X613906Y738577D01*
X614305Y738628D01*
X614724Y738645D01*
X615199Y738627D01*
X615648Y738572D01*
X616072Y738482D01*
X616469Y738355D01*
X616840Y738192D01*
X617186Y737992D01*
X617505Y737756D01*
X617798Y737484D01*
X618061Y737180D01*
X618289Y736848D01*
X618481Y736488D01*
X618639Y736100D01*
X618762Y735683D01*
X618849Y735239D01*
X618902Y734766D01*
X618919Y734266D01*
X618907Y733845D01*
X618872Y733445D01*
X618813Y733065D01*
X618731Y732707D01*
X618625Y732369D01*
X618496Y732052D01*
X618343Y731756D01*
X618166Y731481D01*
X617967Y731228D01*
X617747Y730999D01*
X617506Y730795D01*
X617244Y730616D01*
X616961Y730460D01*
X616657Y730329D01*
X616331Y730223D01*
X615985Y730140D01*
G37*
G36*
X618744Y720356D02*
X617632Y720356D01*
X617134Y720591D01*
X616667Y720852D01*
X616230Y721137D01*
X615823Y721446D01*
X615440Y721772D01*
X615076Y722106D01*
X614731Y722449D01*
X614404Y722799D01*
X613792Y723505D01*
X613226Y724205D01*
X612683Y724867D01*
X612140Y725462D01*
X611865Y725729D01*
X611584Y725969D01*
X611296Y726182D01*
X611001Y726368D01*
X610694Y726520D01*
X610366Y726628D01*
X610019Y726693D01*
X609653Y726714D01*
X609406Y726705D01*
X609173Y726677D01*
X608955Y726631D01*
X608751Y726565D01*
X608561Y726482D01*
X608385Y726379D01*
X608223Y726258D01*
X608076Y726119D01*
X607945Y725963D01*
X607831Y725792D01*
X607735Y725607D01*
X607656Y725407D01*
X607594Y725193D01*
X607551Y724964D01*
X607524Y724721D01*
X607516Y724463D01*
X607524Y724217D01*
X607550Y723982D01*
X607593Y723758D01*
X607652Y723545D01*
X607729Y723343D01*
X607823Y723152D01*
X607935Y722972D01*
X608063Y722804D01*
X608207Y722649D01*
X608364Y722511D01*
X608536Y722390D01*
X608721Y722286D01*
X608920Y722198D01*
X609133Y722128D01*
X609360Y722074D01*
X609600Y722037D01*
X609451Y720426D01*
X609091Y720484D01*
X608749Y720570D01*
X608426Y720685D01*
X608122Y720827D01*
X607837Y720999D01*
X607571Y721198D01*
X607324Y721426D01*
X607095Y721683D01*
X606890Y721963D01*
X606712Y722262D01*
X606561Y722581D01*
X606438Y722919D01*
X606342Y723276D01*
X606274Y723652D01*
X606233Y724048D01*
X606219Y724463D01*
X606233Y724916D01*
X606274Y725342D01*
X606343Y725741D01*
X606439Y726113D01*
X606563Y726458D01*
X606714Y726776D01*
X606893Y727068D01*
X607100Y727332D01*
X607331Y727567D01*
X607586Y727771D01*
X607864Y727943D01*
X608165Y728084D01*
X608489Y728194D01*
X608836Y728272D01*
X609207Y728319D01*
X609600Y728335D01*
X609959Y728314D01*
X610316Y728253D01*
X610672Y728150D01*
X611028Y728006D01*
X611382Y727822D01*
X611737Y727598D01*
X612092Y727334D01*
X612447Y727030D01*
X612850Y726632D01*
X613351Y726086D01*
X613949Y725392D01*
X614645Y724551D01*
X615047Y724073D01*
X615428Y723647D01*
X615789Y723272D01*
X616130Y722948D01*
X616457Y722671D01*
X616779Y722436D01*
X617094Y722242D01*
X617404Y722090D01*
X617404Y728527D01*
X618744Y728527D01*
X618744Y720356D01*
G37*
G36*
X618744Y776168D02*
X617632Y776168D01*
X617134Y776404D01*
X616667Y776664D01*
X616230Y776949D01*
X615823Y777259D01*
X615440Y777585D01*
X615076Y777919D01*
X614731Y778261D01*
X614404Y778612D01*
X613792Y779318D01*
X613226Y780018D01*
X612683Y780680D01*
X612140Y781274D01*
X611865Y781541D01*
X611584Y781781D01*
X611296Y781994D01*
X611001Y782181D01*
X610694Y782332D01*
X610366Y782440D01*
X610019Y782505D01*
X609653Y782527D01*
X609406Y782518D01*
X609173Y782490D01*
X608955Y782443D01*
X608751Y782378D01*
X608561Y782294D01*
X608385Y782192D01*
X608223Y782071D01*
X608076Y781931D01*
X607945Y781775D01*
X607831Y781604D01*
X607735Y781419D01*
X607656Y781220D01*
X607594Y781005D01*
X607551Y780777D01*
X607524Y780534D01*
X607516Y780276D01*
X607524Y780030D01*
X607550Y779794D01*
X607593Y779570D01*
X607652Y779357D01*
X607729Y779155D01*
X607823Y778965D01*
X607935Y778785D01*
X608063Y778616D01*
X608207Y778461D01*
X608364Y778324D01*
X608536Y778203D01*
X608721Y778098D01*
X608920Y778011D01*
X609133Y777940D01*
X609360Y777887D01*
X609600Y777850D01*
X609451Y776238D01*
X609091Y776296D01*
X608749Y776382D01*
X608426Y776497D01*
X608122Y776640D01*
X607837Y776811D01*
X607571Y777011D01*
X607324Y777239D01*
X607095Y777495D01*
X606890Y777775D01*
X606712Y778074D01*
X606561Y778393D01*
X606438Y778731D01*
X606342Y779088D01*
X606274Y779465D01*
X606233Y779861D01*
X606219Y780276D01*
X606233Y780729D01*
X606274Y781155D01*
X606343Y781554D01*
X606439Y781926D01*
X606563Y782271D01*
X606714Y782589D01*
X606893Y782880D01*
X607100Y783144D01*
X607331Y783379D01*
X607586Y783583D01*
X607864Y783755D01*
X608165Y783896D01*
X608489Y784006D01*
X608836Y784084D01*
X609207Y784131D01*
X609600Y784147D01*
X609959Y784127D01*
X610316Y784065D01*
X610672Y783962D01*
X611028Y783819D01*
X611382Y783635D01*
X611737Y783410D01*
X612092Y783146D01*
X612447Y782842D01*
X612850Y782444D01*
X613351Y781898D01*
X613949Y781205D01*
X614645Y780363D01*
X615047Y779886D01*
X615428Y779459D01*
X615789Y779084D01*
X616130Y778761D01*
X616457Y778484D01*
X616779Y778248D01*
X617094Y778055D01*
X617404Y777902D01*
X617404Y784340D01*
X618744Y784340D01*
X618744Y776168D01*
G37*
G36*
X618744Y700882D02*
X617404Y700882D01*
X617404Y704027D01*
X607910Y704027D01*
X609898Y701241D01*
X608409Y701241D01*
X606403Y704158D01*
X606403Y705612D01*
X617404Y705612D01*
X617404Y708616D01*
X618744Y708616D01*
X618744Y700882D01*
G37*
G36*
X618744Y750726D02*
X617404Y750726D01*
X617404Y753870D01*
X607910Y753870D01*
X609898Y751085D01*
X608409Y751085D01*
X606403Y754002D01*
X606403Y755456D01*
X617404Y755456D01*
X617404Y758460D01*
X618744Y758460D01*
X618744Y750726D01*
G37*
G36*
X614680Y770094D02*
X613279Y770094D01*
X613279Y774474D01*
X614680Y774474D01*
X614680Y770094D01*
G37*
G36*
X571649Y564423D02*
X570475Y564817D01*
X571413Y567156D01*
X568811Y567051D01*
X568811Y568242D01*
X571395Y568128D01*
X570493Y570440D01*
X571649Y570834D01*
X572288Y568364D01*
X574478Y569985D01*
X575109Y568942D01*
X572849Y567629D01*
X575091Y566262D01*
X574461Y565220D01*
X572288Y566875D01*
X571649Y564423D01*
G37*
G36*
X606403Y581770D02*
X606403Y583513D01*
X614242Y585728D01*
X615735Y586107D01*
X617273Y586455D01*
X615171Y586941D01*
X614196Y587197D01*
X612409Y587687D01*
X606403Y589372D01*
X606403Y590975D01*
X614084Y593121D01*
X615823Y593559D01*
X617273Y593891D01*
X616966Y593970D01*
X615324Y594356D01*
X612776Y595045D01*
X606403Y596817D01*
X606403Y598560D01*
X618744Y594925D01*
X618744Y592928D01*
X610905Y590791D01*
X609878Y590533D01*
X608269Y590178D01*
X609968Y589792D01*
X612504Y589116D01*
X618744Y587401D01*
X618744Y585404D01*
X606403Y581770D01*
G37*
G36*
X615784Y570537D02*
X615460Y572157D01*
X615728Y572237D01*
X615979Y572336D01*
X616211Y572456D01*
X616424Y572595D01*
X616619Y572754D01*
X616796Y572932D01*
X616954Y573130D01*
X617093Y573348D01*
X617215Y573586D01*
X617321Y573845D01*
X617411Y574124D01*
X617484Y574423D01*
X617541Y574743D01*
X617582Y575084D01*
X617606Y575445D01*
X617614Y575827D01*
X617605Y576220D01*
X617579Y576591D01*
X617536Y576938D01*
X617475Y577262D01*
X617397Y577563D01*
X617301Y577841D01*
X617188Y578096D01*
X617058Y578327D01*
X616911Y578534D01*
X616747Y578712D01*
X616568Y578864D01*
X616372Y578987D01*
X616159Y579084D01*
X615931Y579152D01*
X615686Y579194D01*
X615425Y579208D01*
X615137Y579190D01*
X614877Y579139D01*
X614646Y579052D01*
X614444Y578932D01*
X614263Y578780D01*
X614100Y578600D01*
X613953Y578392D01*
X613822Y578156D01*
X613704Y577895D01*
X613596Y577609D01*
X613498Y577299D01*
X613410Y576965D01*
X613051Y575433D01*
X612889Y574745D01*
X612727Y574146D01*
X612565Y573635D01*
X612403Y573212D01*
X612236Y572853D01*
X612060Y572535D01*
X611875Y572256D01*
X611680Y572017D01*
X611473Y571811D01*
X611248Y571630D01*
X611006Y571476D01*
X610747Y571347D01*
X610470Y571245D01*
X610174Y571173D01*
X609857Y571129D01*
X609521Y571115D01*
X609136Y571134D01*
X608774Y571190D01*
X608435Y571285D01*
X608118Y571418D01*
X607824Y571588D01*
X607552Y571797D01*
X607304Y572043D01*
X607078Y572328D01*
X606876Y572647D01*
X606702Y573000D01*
X606555Y573385D01*
X606434Y573802D01*
X606340Y574253D01*
X606273Y574736D01*
X606233Y575252D01*
X606219Y575800D01*
X606229Y576310D01*
X606260Y576790D01*
X606310Y577238D01*
X606380Y577655D01*
X606471Y578041D01*
X606581Y578397D01*
X606712Y578721D01*
X606863Y579015D01*
X607038Y579282D01*
X607242Y579529D01*
X607473Y579755D01*
X607733Y579961D01*
X608022Y580145D01*
X608339Y580309D01*
X608684Y580452D01*
X609057Y580574D01*
X609346Y578927D01*
X609109Y578852D01*
X608889Y578761D01*
X608686Y578655D01*
X608500Y578533D01*
X608330Y578396D01*
X608178Y578244D01*
X608042Y578077D01*
X607923Y577894D01*
X607819Y577694D01*
X607729Y577476D01*
X607653Y577240D01*
X607591Y576985D01*
X607543Y576712D01*
X607508Y576421D01*
X607487Y576111D01*
X607481Y575783D01*
X607488Y575424D01*
X607511Y575087D01*
X607550Y574771D01*
X607603Y574478D01*
X607672Y574206D01*
X607756Y573957D01*
X607856Y573729D01*
X607971Y573523D01*
X608101Y573341D01*
X608246Y573182D01*
X608407Y573048D01*
X608582Y572939D01*
X608772Y572853D01*
X608978Y572792D01*
X609198Y572756D01*
X609434Y572744D01*
X609706Y572763D01*
X609954Y572819D01*
X610177Y572914D01*
X610375Y573046D01*
X610554Y573214D01*
X610719Y573415D01*
X610870Y573649D01*
X611006Y573917D01*
X611142Y574273D01*
X611294Y574769D01*
X611460Y575407D01*
X611641Y576186D01*
X611908Y577320D01*
X612057Y577873D01*
X612232Y578402D01*
X612437Y578902D01*
X612674Y579370D01*
X612808Y579588D01*
X612957Y579791D01*
X613119Y579980D01*
X613296Y580153D01*
X613488Y580311D01*
X613697Y580450D01*
X613922Y580571D01*
X614163Y580675D01*
X614424Y580757D01*
X614706Y580816D01*
X615011Y580851D01*
X615337Y580863D01*
X615752Y580842D01*
X616143Y580779D01*
X616510Y580675D01*
X616852Y580529D01*
X617171Y580341D01*
X617465Y580112D01*
X617736Y579840D01*
X617982Y579527D01*
X618202Y579176D01*
X618392Y578791D01*
X618553Y578372D01*
X618685Y577919D01*
X618787Y577432D01*
X618861Y576910D01*
X618905Y576355D01*
X618919Y575765D01*
X618907Y575216D01*
X618870Y574697D01*
X618809Y574207D01*
X618723Y573747D01*
X618613Y573317D01*
X618478Y572916D01*
X618319Y572544D01*
X618135Y572203D01*
X617927Y571891D01*
X617694Y571609D01*
X617437Y571356D01*
X617155Y571133D01*
X616849Y570939D01*
X616519Y570775D01*
X616163Y570641D01*
X615784Y570537D01*
G37*
G36*
X618744Y599530D02*
X617632Y599530D01*
X617134Y599766D01*
X616667Y600026D01*
X616230Y600311D01*
X615823Y600621D01*
X615440Y600947D01*
X615076Y601281D01*
X614731Y601623D01*
X614404Y601974D01*
X613792Y602680D01*
X613226Y603380D01*
X612683Y604042D01*
X612140Y604637D01*
X611865Y604903D01*
X611584Y605144D01*
X611296Y605357D01*
X611001Y605543D01*
X610694Y605694D01*
X610366Y605803D01*
X610019Y605867D01*
X609653Y605889D01*
X609406Y605880D01*
X609173Y605852D01*
X608955Y605805D01*
X608751Y605740D01*
X608561Y605656D01*
X608385Y605554D01*
X608223Y605433D01*
X608076Y605294D01*
X607945Y605137D01*
X607831Y604967D01*
X607735Y604782D01*
X607656Y604582D01*
X607594Y604368D01*
X607551Y604139D01*
X607524Y603896D01*
X607516Y603638D01*
X607524Y603392D01*
X607550Y603157D01*
X607593Y602933D01*
X607652Y602720D01*
X607729Y602518D01*
X607823Y602327D01*
X607935Y602147D01*
X608063Y601978D01*
X608207Y601824D01*
X608364Y601686D01*
X608536Y601565D01*
X608721Y601461D01*
X608920Y601373D01*
X609133Y601303D01*
X609360Y601249D01*
X609600Y601212D01*
X609451Y599600D01*
X609091Y599658D01*
X608749Y599745D01*
X608426Y599859D01*
X608122Y600002D01*
X607837Y600174D01*
X607571Y600373D01*
X607324Y600601D01*
X607095Y600857D01*
X606890Y601137D01*
X606712Y601437D01*
X606561Y601755D01*
X606438Y602093D01*
X606342Y602451D01*
X606274Y602827D01*
X606233Y603223D01*
X606219Y603638D01*
X606233Y604091D01*
X606274Y604517D01*
X606343Y604916D01*
X606439Y605288D01*
X606563Y605633D01*
X606714Y605951D01*
X606893Y606242D01*
X607100Y606507D01*
X607331Y606742D01*
X607586Y606945D01*
X607864Y607118D01*
X608165Y607259D01*
X608489Y607368D01*
X608836Y607447D01*
X609207Y607494D01*
X609600Y607509D01*
X609959Y607489D01*
X610316Y607427D01*
X610672Y607325D01*
X611028Y607181D01*
X611382Y606997D01*
X611737Y606773D01*
X612092Y606508D01*
X612447Y606204D01*
X612850Y605806D01*
X613351Y605261D01*
X613949Y604567D01*
X614645Y603726D01*
X615047Y603248D01*
X615428Y602821D01*
X615789Y602446D01*
X616130Y602123D01*
X616457Y601846D01*
X616779Y601611D01*
X617094Y601417D01*
X617404Y601265D01*
X617404Y607702D01*
X618744Y607702D01*
X618744Y599530D01*
G37*
G36*
X612569Y645729D02*
X611799Y645745D01*
X611079Y645794D01*
X610409Y645875D01*
X609788Y645989D01*
X609218Y646135D01*
X608697Y646313D01*
X608226Y646524D01*
X607805Y646767D01*
X607433Y647045D01*
X607111Y647361D01*
X606839Y647715D01*
X606616Y648106D01*
X606442Y648535D01*
X606374Y648763D01*
X606318Y649001D01*
X606275Y649249D01*
X606244Y649505D01*
X606226Y649772D01*
X606219Y650047D01*
X606226Y650315D01*
X606244Y650575D01*
X606276Y650825D01*
X606319Y651066D01*
X606376Y651299D01*
X606445Y651522D01*
X606620Y651942D01*
X606845Y652327D01*
X607121Y652676D01*
X607446Y652989D01*
X607822Y653266D01*
X608247Y653509D01*
X608720Y653720D01*
X609241Y653898D01*
X609810Y654044D01*
X610428Y654158D01*
X611093Y654239D01*
X611807Y654288D01*
X612569Y654304D01*
X613319Y654287D01*
X614024Y654236D01*
X614682Y654150D01*
X615295Y654031D01*
X615863Y653878D01*
X616384Y653690D01*
X616860Y653469D01*
X617290Y653213D01*
X617672Y652925D01*
X618003Y652603D01*
X618283Y652250D01*
X618512Y651863D01*
X618690Y651445D01*
X618817Y650994D01*
X618862Y650756D01*
X618894Y650510D01*
X618913Y650257D01*
X618919Y649995D01*
X618913Y649733D01*
X618894Y649479D01*
X618862Y649234D01*
X618818Y648997D01*
X618691Y648547D01*
X618514Y648131D01*
X618286Y647748D01*
X618008Y647398D01*
X617679Y647081D01*
X617299Y646798D01*
X616871Y646547D01*
X616396Y646330D01*
X615874Y646147D01*
X615306Y645996D01*
X614692Y645879D01*
X614031Y645796D01*
X613323Y645746D01*
X612569Y645729D01*
G37*
%LPC*%
G36*
X612569Y647323D02*
X613204Y647333D01*
X613795Y647363D01*
X614342Y647414D01*
X614844Y647484D01*
X615303Y647575D01*
X615717Y647685D01*
X616088Y647816D01*
X616414Y647967D01*
X616700Y648140D01*
X616947Y648336D01*
X617156Y648556D01*
X617327Y648800D01*
X617460Y649068D01*
X617556Y649359D01*
X617613Y649674D01*
X617632Y650012D01*
X617612Y650349D01*
X617554Y650662D01*
X617457Y650952D01*
X617321Y651219D01*
X617146Y651462D01*
X616932Y651682D01*
X616679Y651879D01*
X616388Y652053D01*
X616056Y652205D01*
X615683Y652336D01*
X615268Y652448D01*
X614811Y652539D01*
X614313Y652610D01*
X613774Y652660D01*
X613192Y652691D01*
X612569Y652701D01*
X611924Y652691D01*
X611326Y652662D01*
X610773Y652614D01*
X610266Y652547D01*
X609805Y652460D01*
X609390Y652354D01*
X609021Y652228D01*
X608698Y652084D01*
X608417Y651917D01*
X608173Y651725D01*
X607967Y651508D01*
X607798Y651266D01*
X607667Y650999D01*
X607573Y650707D01*
X607517Y650389D01*
X607498Y650047D01*
X607517Y649696D01*
X607572Y649371D01*
X607664Y649072D01*
X607794Y648798D01*
X607960Y648550D01*
X608163Y648327D01*
X608403Y648130D01*
X608680Y647958D01*
X609000Y647809D01*
X609367Y647680D01*
X609782Y647571D01*
X610244Y647482D01*
X610754Y647413D01*
X611311Y647363D01*
X611916Y647333D01*
X612569Y647323D01*
G37*
%LPD*%
G36*
X615319Y595964D02*
X615023Y595975D01*
X614739Y596008D01*
X614467Y596062D01*
X614207Y596137D01*
X613959Y596235D01*
X613723Y596353D01*
X613499Y596494D01*
X613287Y596656D01*
X613092Y596835D01*
X612916Y597026D01*
X612761Y597229D01*
X612626Y597444D01*
X612512Y597672D01*
X612417Y597911D01*
X612343Y598162D01*
X612289Y598425D01*
X612254Y598425D01*
X612186Y598180D01*
X612101Y597948D01*
X611999Y597730D01*
X611880Y597524D01*
X611743Y597332D01*
X611589Y597154D01*
X611418Y596988D01*
X611229Y596836D01*
X611028Y596699D01*
X610818Y596581D01*
X610600Y596481D01*
X610373Y596399D01*
X610138Y596335D01*
X609894Y596290D01*
X609642Y596262D01*
X609381Y596253D01*
X609037Y596270D01*
X608709Y596319D01*
X608399Y596402D01*
X608105Y596517D01*
X607827Y596666D01*
X607566Y596847D01*
X607322Y597061D01*
X607095Y597309D01*
X606890Y597584D01*
X606712Y597882D01*
X606561Y598202D01*
X606438Y598545D01*
X606342Y598910D01*
X606274Y599298D01*
X606233Y599709D01*
X606219Y600142D01*
X606233Y600586D01*
X606273Y601005D01*
X606340Y601401D01*
X606434Y601772D01*
X606555Y602120D01*
X606702Y602444D01*
X606876Y602743D01*
X607078Y603019D01*
X607302Y603267D01*
X607545Y603481D01*
X607806Y603662D01*
X608087Y603811D01*
X608387Y603926D01*
X608705Y604009D01*
X609042Y604058D01*
X609399Y604075D01*
X609659Y604066D01*
X609912Y604038D01*
X610155Y603992D01*
X610391Y603928D01*
X610617Y603845D01*
X610836Y603745D01*
X611045Y603625D01*
X611247Y603488D01*
X611435Y603334D01*
X611604Y603168D01*
X611619Y603150D01*
X611755Y602987D01*
X611888Y602794D01*
X612003Y602587D01*
X612099Y602366D01*
X612177Y602132D01*
X612236Y601885D01*
X612271Y601885D01*
X612329Y602172D01*
X612406Y602443D01*
X612503Y602698D01*
X612619Y602936D01*
X612754Y603158D01*
X612908Y603363D01*
X613081Y603552D01*
X613237Y603691D01*
X613274Y603724D01*
X613483Y603878D01*
X613705Y604012D01*
X613939Y604125D01*
X614186Y604217D01*
X614446Y604289D01*
X614719Y604340D01*
X615004Y604371D01*
X615302Y604381D01*
X615717Y604364D01*
X616109Y604313D01*
X616477Y604228D01*
X616822Y604110D01*
X617143Y603957D01*
X617440Y603770D01*
X617714Y603550D01*
X617965Y603295D01*
X618188Y603009D01*
X618382Y602693D01*
X618546Y602348D01*
X618681Y601973D01*
X618785Y601568D01*
X618860Y601134D01*
X618904Y600670D01*
X618919Y600177D01*
X618905Y599696D01*
X618861Y599241D01*
X618787Y598814D01*
X618685Y598413D01*
X618553Y598040D01*
X618392Y597693D01*
X618202Y597374D01*
X617982Y597081D01*
X617735Y596819D01*
X617464Y596592D01*
X617168Y596400D01*
X616848Y596243D01*
X616503Y596121D01*
X616133Y596034D01*
X615738Y595982D01*
X615319Y595964D01*
G37*
%LPC*%
G36*
X615188Y597593D02*
X615497Y597604D01*
X615785Y597634D01*
X616054Y597685D01*
X616303Y597756D01*
X616532Y597847D01*
X616741Y597959D01*
X616930Y598091D01*
X617100Y598244D01*
X617249Y598416D01*
X617378Y598609D01*
X617488Y598823D01*
X617578Y599057D01*
X617647Y599311D01*
X617697Y599585D01*
X617727Y599880D01*
X617737Y600195D01*
X617727Y600506D01*
X617698Y600797D01*
X617650Y601068D01*
X617582Y601318D01*
X617496Y601547D01*
X617389Y601756D01*
X617264Y601945D01*
X617119Y602113D01*
X616954Y602261D01*
X616765Y602389D01*
X616553Y602497D01*
X616319Y602586D01*
X616062Y602655D01*
X615782Y602704D01*
X615479Y602734D01*
X615153Y602743D01*
X614875Y602733D01*
X614615Y602701D01*
X614372Y602647D01*
X614147Y602573D01*
X613939Y602477D01*
X613750Y602359D01*
X613578Y602220D01*
X613423Y602060D01*
X613287Y601881D01*
X613168Y601684D01*
X613068Y601470D01*
X612986Y601239D01*
X612923Y600991D01*
X612877Y600725D01*
X612850Y600442D01*
X612841Y600142D01*
X612851Y599850D01*
X612880Y599575D01*
X612929Y599316D01*
X612997Y599074D01*
X613085Y598847D01*
X613193Y598638D01*
X613320Y598445D01*
X613467Y598268D01*
X613631Y598110D01*
X613809Y597973D01*
X614003Y597857D01*
X614210Y597762D01*
X614433Y597688D01*
X614670Y597636D01*
X614922Y597604D01*
X615188Y597593D01*
G37*
G36*
X609486Y597865D02*
X609743Y597874D01*
X609985Y597902D01*
X610210Y597949D01*
X610420Y598015D01*
X610614Y598099D01*
X610793Y598202D01*
X610955Y598324D01*
X611102Y598465D01*
X611233Y598623D01*
X611346Y598796D01*
X611441Y598984D01*
X611519Y599188D01*
X611580Y599408D01*
X611624Y599643D01*
X611650Y599894D01*
X611658Y600160D01*
X611650Y600429D01*
X611626Y600683D01*
X611586Y600919D01*
X611530Y601139D01*
X611458Y601343D01*
X611370Y601530D01*
X611266Y601700D01*
X611146Y601854D01*
X611008Y601991D01*
X610850Y602109D01*
X610672Y602209D01*
X610475Y602291D01*
X610257Y602355D01*
X610020Y602400D01*
X609763Y602428D01*
X609486Y602437D01*
X609233Y602428D01*
X608996Y602401D01*
X608775Y602356D01*
X608570Y602293D01*
X608382Y602213D01*
X608211Y602114D01*
X608055Y601998D01*
X607916Y601863D01*
X607794Y601711D01*
X607687Y601540D01*
X607597Y601352D01*
X607524Y601146D01*
X607467Y600922D01*
X607426Y600680D01*
X607401Y600420D01*
X607393Y600142D01*
X607401Y599872D01*
X607426Y599619D01*
X607467Y599382D01*
X607524Y599162D01*
X607598Y598959D01*
X607689Y598772D01*
X607795Y598601D01*
X607918Y598447D01*
X608058Y598311D01*
X608214Y598192D01*
X608385Y598092D01*
X608573Y598010D01*
X608777Y597947D01*
X608997Y597901D01*
X609234Y597874D01*
X609486Y597865D01*
G37*
%LPD*%
G36*
X610371Y625932D02*
X609900Y625949D01*
X609455Y626000D01*
X609036Y626085D01*
X608642Y626203D01*
X608275Y626356D01*
X607933Y626543D01*
X607617Y626763D01*
X607327Y627018D01*
X607068Y627303D01*
X606843Y627614D01*
X606652Y627952D01*
X606496Y628316D01*
X606375Y628707D01*
X606289Y629125D01*
X606237Y629569D01*
X606219Y630040D01*
X606225Y630293D01*
X606243Y630539D01*
X606315Y631006D01*
X606434Y631443D01*
X606600Y631848D01*
X606815Y632222D01*
X607077Y632565D01*
X607386Y632877D01*
X607743Y633158D01*
X608148Y633406D01*
X608601Y633621D01*
X609102Y633803D01*
X609650Y633952D01*
X610247Y634068D01*
X610891Y634151D01*
X611584Y634201D01*
X612324Y634217D01*
X613096Y634199D01*
X613822Y634145D01*
X614502Y634054D01*
X615136Y633927D01*
X615723Y633764D01*
X616265Y633565D01*
X616761Y633329D01*
X617211Y633057D01*
X617612Y632751D01*
X617958Y632415D01*
X618252Y632048D01*
X618492Y631650D01*
X618679Y631221D01*
X618752Y630995D01*
X618812Y630762D01*
X618859Y630521D01*
X618892Y630272D01*
X618912Y630015D01*
X618919Y629751D01*
X618910Y629398D01*
X618881Y629064D01*
X618834Y628747D01*
X618767Y628449D01*
X618681Y628168D01*
X618577Y627906D01*
X618453Y627661D01*
X618310Y627434D01*
X618147Y627224D01*
X617959Y627029D01*
X617749Y626850D01*
X617515Y626686D01*
X617257Y626538D01*
X616976Y626405D01*
X616672Y626288D01*
X616344Y626186D01*
X616108Y627692D01*
X616469Y627828D01*
X616782Y628000D01*
X617047Y628207D01*
X617264Y628450D01*
X617432Y628728D01*
X617553Y629042D01*
X617625Y629392D01*
X617643Y629580D01*
X617649Y629777D01*
X617630Y630107D01*
X617570Y630417D01*
X617472Y630709D01*
X617334Y630981D01*
X617157Y631234D01*
X616940Y631468D01*
X616684Y631683D01*
X616388Y631879D01*
X616056Y632054D01*
X615690Y632207D01*
X615291Y632337D01*
X614857Y632446D01*
X614391Y632532D01*
X613890Y632597D01*
X613356Y632639D01*
X612788Y632658D01*
X612980Y632563D01*
X613163Y632452D01*
X613336Y632325D01*
X613499Y632183D01*
X613652Y632025D01*
X613796Y631852D01*
X613930Y631663D01*
X614054Y631458D01*
X614166Y631243D01*
X614263Y631023D01*
X614345Y630798D01*
X614412Y630567D01*
X614464Y630331D01*
X614501Y630090D01*
X614524Y629844D01*
X614531Y629593D01*
X614513Y629187D01*
X614460Y628802D01*
X614371Y628438D01*
X614247Y628095D01*
X614086Y627773D01*
X613891Y627471D01*
X613659Y627190D01*
X613393Y626930D01*
X613096Y626696D01*
X612777Y626493D01*
X612434Y626322D01*
X612068Y626181D01*
X611678Y626072D01*
X611266Y625994D01*
X610830Y625947D01*
X610371Y625932D01*
G37*
%LPC*%
G36*
X610371Y627535D02*
X610699Y627545D01*
X611010Y627576D01*
X611303Y627627D01*
X611578Y627699D01*
X611836Y627791D01*
X612076Y627904D01*
X612299Y628038D01*
X612504Y628192D01*
X612687Y628363D01*
X612847Y628549D01*
X612981Y628749D01*
X613091Y628964D01*
X613177Y629194D01*
X613238Y629438D01*
X613275Y629696D01*
X613287Y629970D01*
X613268Y630305D01*
X613210Y630629D01*
X613113Y630940D01*
X612977Y631239D01*
X612805Y631517D01*
X612601Y631764D01*
X612365Y631979D01*
X612096Y632164D01*
X611802Y632311D01*
X611488Y632416D01*
X611154Y632480D01*
X610800Y632501D01*
X610437Y632490D01*
X610092Y632458D01*
X609765Y632405D01*
X609457Y632330D01*
X609166Y632234D01*
X608894Y632116D01*
X608640Y631978D01*
X608405Y631818D01*
X608192Y631640D01*
X608008Y631447D01*
X607852Y631240D01*
X607725Y631018D01*
X607626Y630782D01*
X607555Y630532D01*
X607512Y630267D01*
X607498Y629987D01*
X607510Y629710D01*
X607547Y629448D01*
X607607Y629201D01*
X607692Y628969D01*
X607801Y628752D01*
X607934Y628550D01*
X608092Y628363D01*
X608273Y628192D01*
X608476Y628038D01*
X608695Y627904D01*
X608932Y627791D01*
X609185Y627699D01*
X609456Y627627D01*
X609744Y627576D01*
X610049Y627545D01*
X610371Y627535D01*
G37*
%LPD*%
G36*
X615985Y615840D02*
X615801Y617435D01*
X616023Y617503D01*
X616230Y617584D01*
X616423Y617677D01*
X616602Y617782D01*
X616766Y617900D01*
X616917Y618029D01*
X617053Y618171D01*
X617174Y618326D01*
X617281Y618492D01*
X617374Y618671D01*
X617453Y618862D01*
X617517Y619065D01*
X617567Y619281D01*
X617603Y619509D01*
X617625Y619749D01*
X617632Y620001D01*
X617620Y620310D01*
X617584Y620601D01*
X617524Y620876D01*
X617440Y621133D01*
X617332Y621373D01*
X617201Y621595D01*
X617045Y621801D01*
X616865Y621989D01*
X616665Y622157D01*
X616446Y622303D01*
X616210Y622427D01*
X615956Y622528D01*
X615683Y622606D01*
X615393Y622662D01*
X615085Y622696D01*
X614759Y622707D01*
X614475Y622696D01*
X614204Y622662D01*
X613948Y622606D01*
X613706Y622527D01*
X613477Y622425D01*
X613263Y622301D01*
X613062Y622154D01*
X612876Y621985D01*
X612707Y621796D01*
X612562Y621592D01*
X612438Y621372D01*
X612337Y621136D01*
X612259Y620885D01*
X612202Y620617D01*
X612169Y620334D01*
X612158Y620036D01*
X612170Y619722D01*
X612208Y619418D01*
X612271Y619126D01*
X612359Y618845D01*
X612477Y618569D01*
X612631Y618293D01*
X612819Y618017D01*
X613042Y617741D01*
X613042Y616200D01*
X606403Y616611D01*
X606403Y623627D01*
X607743Y623627D01*
X607743Y618048D01*
X611658Y617811D01*
X611474Y618075D01*
X611314Y618355D01*
X611178Y618650D01*
X611067Y618961D01*
X610981Y619287D01*
X610919Y619629D01*
X610882Y619987D01*
X610870Y620360D01*
X610887Y620804D01*
X610937Y621224D01*
X611020Y621622D01*
X611137Y621997D01*
X611287Y622348D01*
X611471Y622676D01*
X611688Y622981D01*
X611939Y623263D01*
X612216Y623517D01*
X612513Y623737D01*
X612831Y623922D01*
X613169Y624075D01*
X613527Y624193D01*
X613906Y624277D01*
X614305Y624328D01*
X614724Y624345D01*
X615199Y624327D01*
X615648Y624272D01*
X616072Y624182D01*
X616469Y624055D01*
X616840Y623892D01*
X617186Y623692D01*
X617505Y623456D01*
X617798Y623184D01*
X618061Y622880D01*
X618289Y622548D01*
X618481Y622188D01*
X618639Y621800D01*
X618762Y621383D01*
X618849Y620939D01*
X618902Y620466D01*
X618919Y619966D01*
X618907Y619545D01*
X618872Y619145D01*
X618813Y618765D01*
X618731Y618407D01*
X618625Y618069D01*
X618496Y617752D01*
X618343Y617456D01*
X618166Y617181D01*
X617967Y616928D01*
X617747Y616699D01*
X617506Y616495D01*
X617244Y616316D01*
X616961Y616160D01*
X616657Y616029D01*
X616331Y615923D01*
X615985Y615840D01*
G37*
G36*
X618744Y606056D02*
X617632Y606056D01*
X617134Y606291D01*
X616667Y606552D01*
X616230Y606837D01*
X615823Y607146D01*
X615440Y607472D01*
X615076Y607806D01*
X614731Y608149D01*
X614404Y608499D01*
X613792Y609205D01*
X613226Y609905D01*
X612683Y610567D01*
X612140Y611162D01*
X611865Y611429D01*
X611584Y611669D01*
X611296Y611882D01*
X611001Y612068D01*
X610694Y612220D01*
X610366Y612328D01*
X610019Y612393D01*
X609653Y612414D01*
X609406Y612405D01*
X609173Y612377D01*
X608955Y612331D01*
X608751Y612265D01*
X608561Y612182D01*
X608385Y612079D01*
X608223Y611958D01*
X608076Y611819D01*
X607945Y611663D01*
X607831Y611492D01*
X607735Y611307D01*
X607656Y611107D01*
X607594Y610893D01*
X607551Y610664D01*
X607524Y610421D01*
X607516Y610163D01*
X607524Y609917D01*
X607550Y609682D01*
X607593Y609458D01*
X607652Y609245D01*
X607729Y609043D01*
X607823Y608852D01*
X607935Y608672D01*
X608063Y608504D01*
X608207Y608349D01*
X608364Y608211D01*
X608536Y608090D01*
X608721Y607986D01*
X608920Y607898D01*
X609133Y607828D01*
X609360Y607774D01*
X609600Y607737D01*
X609451Y606126D01*
X609091Y606184D01*
X608749Y606270D01*
X608426Y606385D01*
X608122Y606527D01*
X607837Y606699D01*
X607571Y606898D01*
X607324Y607126D01*
X607095Y607383D01*
X606890Y607663D01*
X606712Y607962D01*
X606561Y608281D01*
X606438Y608619D01*
X606342Y608976D01*
X606274Y609352D01*
X606233Y609748D01*
X606219Y610163D01*
X606233Y610616D01*
X606274Y611042D01*
X606343Y611441D01*
X606439Y611813D01*
X606563Y612158D01*
X606714Y612476D01*
X606893Y612768D01*
X607100Y613032D01*
X607331Y613267D01*
X607586Y613471D01*
X607864Y613643D01*
X608165Y613784D01*
X608489Y613894D01*
X608836Y613972D01*
X609207Y614019D01*
X609600Y614035D01*
X609959Y614014D01*
X610316Y613953D01*
X610672Y613850D01*
X611028Y613706D01*
X611382Y613522D01*
X611737Y613298D01*
X612092Y613034D01*
X612447Y612730D01*
X612850Y612332D01*
X613351Y611786D01*
X613949Y611092D01*
X614645Y610251D01*
X615047Y609773D01*
X615428Y609347D01*
X615789Y608972D01*
X616130Y608648D01*
X616457Y608371D01*
X616779Y608136D01*
X617094Y607942D01*
X617404Y607790D01*
X617404Y614227D01*
X618744Y614227D01*
X618744Y606056D01*
G37*
G36*
X618744Y661868D02*
X617632Y661868D01*
X617134Y662104D01*
X616667Y662364D01*
X616230Y662649D01*
X615823Y662959D01*
X615440Y663285D01*
X615076Y663619D01*
X614731Y663961D01*
X614404Y664312D01*
X613792Y665018D01*
X613226Y665718D01*
X612683Y666380D01*
X612140Y666974D01*
X611865Y667241D01*
X611584Y667481D01*
X611296Y667694D01*
X611001Y667881D01*
X610694Y668032D01*
X610366Y668140D01*
X610019Y668205D01*
X609653Y668227D01*
X609406Y668218D01*
X609173Y668190D01*
X608955Y668143D01*
X608751Y668078D01*
X608561Y667994D01*
X608385Y667892D01*
X608223Y667771D01*
X608076Y667631D01*
X607945Y667475D01*
X607831Y667304D01*
X607735Y667119D01*
X607656Y666920D01*
X607594Y666705D01*
X607551Y666477D01*
X607524Y666234D01*
X607516Y665976D01*
X607524Y665730D01*
X607550Y665494D01*
X607593Y665270D01*
X607652Y665057D01*
X607729Y664855D01*
X607823Y664665D01*
X607935Y664485D01*
X608063Y664316D01*
X608207Y664161D01*
X608364Y664024D01*
X608536Y663903D01*
X608721Y663798D01*
X608920Y663711D01*
X609133Y663640D01*
X609360Y663587D01*
X609600Y663550D01*
X609451Y661938D01*
X609091Y661996D01*
X608749Y662082D01*
X608426Y662197D01*
X608122Y662340D01*
X607837Y662511D01*
X607571Y662711D01*
X607324Y662939D01*
X607095Y663195D01*
X606890Y663475D01*
X606712Y663774D01*
X606561Y664093D01*
X606438Y664431D01*
X606342Y664788D01*
X606274Y665165D01*
X606233Y665561D01*
X606219Y665976D01*
X606233Y666429D01*
X606274Y666855D01*
X606343Y667254D01*
X606439Y667626D01*
X606563Y667971D01*
X606714Y668289D01*
X606893Y668580D01*
X607100Y668844D01*
X607331Y669079D01*
X607586Y669283D01*
X607864Y669455D01*
X608165Y669596D01*
X608489Y669706D01*
X608836Y669784D01*
X609207Y669831D01*
X609600Y669847D01*
X609959Y669827D01*
X610316Y669765D01*
X610672Y669662D01*
X611028Y669519D01*
X611382Y669335D01*
X611737Y669110D01*
X612092Y668846D01*
X612447Y668542D01*
X612850Y668144D01*
X613351Y667598D01*
X613949Y666905D01*
X614645Y666063D01*
X615047Y665586D01*
X615428Y665159D01*
X615789Y664784D01*
X616130Y664461D01*
X616457Y664184D01*
X616779Y663948D01*
X617094Y663755D01*
X617404Y663602D01*
X617404Y670040D01*
X618744Y670040D01*
X618744Y661868D01*
G37*
G36*
X618744Y586582D02*
X617404Y586582D01*
X617404Y589727D01*
X607910Y589727D01*
X609898Y586941D01*
X608409Y586941D01*
X606403Y589858D01*
X606403Y591312D01*
X617404Y591312D01*
X617404Y594316D01*
X618744Y594316D01*
X618744Y586582D01*
G37*
G36*
X618744Y636426D02*
X617404Y636426D01*
X617404Y639570D01*
X607910Y639570D01*
X609898Y636785D01*
X608409Y636785D01*
X606403Y639702D01*
X606403Y641156D01*
X617404Y641156D01*
X617404Y644160D01*
X618744Y644160D01*
X618744Y636426D01*
G37*
G36*
X614680Y655794D02*
X613279Y655794D01*
X613279Y660174D01*
X614680Y660174D01*
X614680Y655794D01*
G37*
G36*
X777685Y217418D02*
X776164Y217418D01*
X776164Y219405D01*
X775528Y219448D01*
X774926Y219522D01*
X774358Y219627D01*
X773824Y219763D01*
X773324Y219930D01*
X772859Y220128D01*
X772427Y220357D01*
X772030Y220617D01*
X771667Y220908D01*
X771338Y221229D01*
X771043Y221582D01*
X770782Y221966D01*
X770555Y222380D01*
X770362Y222826D01*
X770204Y223302D01*
X770079Y223810D01*
X772165Y224264D01*
X772252Y223910D01*
X772360Y223579D01*
X772489Y223270D01*
X772639Y222985D01*
X772809Y222721D01*
X773001Y222481D01*
X773213Y222263D01*
X773447Y222068D01*
X773703Y221893D01*
X773982Y221739D01*
X774286Y221603D01*
X774614Y221488D01*
X774966Y221392D01*
X775341Y221315D01*
X775694Y221265D01*
X775741Y221258D01*
X776164Y221221D01*
X776164Y227306D01*
X775162Y227569D01*
X774329Y227818D01*
X774008Y227932D01*
X773663Y228054D01*
X773165Y228275D01*
X772771Y228498D01*
X772416Y228737D01*
X772102Y228992D01*
X771827Y229263D01*
X771591Y229547D01*
X771389Y229841D01*
X771223Y230145D01*
X771091Y230459D01*
X770992Y230794D01*
X770921Y231161D01*
X770879Y231561D01*
X770864Y231992D01*
X770886Y232455D01*
X770951Y232891D01*
X771059Y233302D01*
X771209Y233687D01*
X771404Y234046D01*
X771641Y234379D01*
X771921Y234686D01*
X772245Y234967D01*
X772608Y235221D01*
X773007Y235444D01*
X773443Y235637D01*
X773915Y235800D01*
X774423Y235933D01*
X774967Y236036D01*
X775547Y236109D01*
X776164Y236151D01*
X776164Y237758D01*
X777685Y237758D01*
X777685Y236151D01*
X778243Y236111D01*
X778767Y236045D01*
X779259Y235954D01*
X779719Y235837D01*
X780146Y235695D01*
X780540Y235527D01*
X780902Y235333D01*
X781231Y235115D01*
X781532Y234867D01*
X781811Y234587D01*
X782066Y234274D01*
X782298Y233929D01*
X782508Y233552D01*
X782694Y233142D01*
X782857Y232700D01*
X782998Y232225D01*
X780863Y231821D01*
X780794Y232101D01*
X780709Y232365D01*
X780608Y232614D01*
X780492Y232847D01*
X780360Y233063D01*
X780212Y233264D01*
X780048Y233449D01*
X779869Y233618D01*
X779671Y233771D01*
X779452Y233908D01*
X779211Y234029D01*
X778949Y234135D01*
X778665Y234224D01*
X778360Y234298D01*
X778034Y234355D01*
X777685Y234397D01*
X777685Y228938D01*
X778704Y228685D01*
X779564Y228444D01*
X780265Y228213D01*
X780808Y227993D01*
X781247Y227771D01*
X781637Y227536D01*
X781980Y227287D01*
X782274Y227024D01*
X782528Y226742D01*
X782749Y226435D01*
X782939Y226104D01*
X783096Y225748D01*
X783219Y225364D01*
X783307Y224947D01*
X783360Y224499D01*
X783378Y224018D01*
X783355Y223525D01*
X783285Y223056D01*
X783169Y222612D01*
X783007Y222193D01*
X782798Y221799D01*
X782543Y221430D01*
X782241Y221086D01*
X781893Y220767D01*
X781503Y220477D01*
X781074Y220222D01*
X780606Y220001D01*
X780099Y219813D01*
X779554Y219660D01*
X778970Y219541D01*
X778347Y219456D01*
X777685Y219405D01*
X777685Y217418D01*
G37*
%LPC*%
G36*
X777685Y221209D02*
X778105Y221246D01*
X778231Y221264D01*
X778500Y221302D01*
X778870Y221376D01*
X779214Y221469D01*
X779534Y221582D01*
X779828Y221713D01*
X780097Y221862D01*
X780342Y222031D01*
X780559Y222217D01*
X780747Y222420D01*
X780906Y222640D01*
X781036Y222877D01*
X781137Y223131D01*
X781210Y223402D01*
X781253Y223689D01*
X781268Y223994D01*
X781248Y224375D01*
X781188Y224721D01*
X781088Y225031D01*
X780949Y225306D01*
X780772Y225553D01*
X780559Y225777D01*
X780312Y225979D01*
X780029Y226159D01*
X779657Y226335D01*
X779142Y226525D01*
X778485Y226731D01*
X777685Y226950D01*
X777685Y221209D01*
G37*
G36*
X776164Y229257D02*
X776164Y234421D01*
X775778Y234392D01*
X775417Y234346D01*
X775080Y234285D01*
X774769Y234207D01*
X774482Y234113D01*
X774221Y234003D01*
X773984Y233877D01*
X773772Y233734D01*
X773585Y233576D01*
X773423Y233402D01*
X773286Y233211D01*
X773174Y233005D01*
X773087Y232782D01*
X773024Y232543D01*
X772987Y232288D01*
X772975Y232017D01*
X772994Y231669D01*
X773051Y231348D01*
X773147Y231055D01*
X773281Y230790D01*
X773287Y230782D01*
X773453Y230549D01*
X773663Y230327D01*
X773910Y230125D01*
X774195Y229944D01*
X774546Y229772D01*
X774991Y229600D01*
X775531Y229428D01*
X776164Y229257D01*
G37*
%LPD*%
G36*
X760621Y218915D02*
X760099Y218927D01*
X759594Y218963D01*
X759105Y219023D01*
X758634Y219108D01*
X758179Y219217D01*
X757741Y219349D01*
X757320Y219506D01*
X756916Y219688D01*
X756532Y219892D01*
X756169Y220118D01*
X755829Y220366D01*
X755511Y220635D01*
X755216Y220927D01*
X754943Y221240D01*
X754691Y221575D01*
X754463Y221933D01*
X754258Y222309D01*
X754081Y222704D01*
X753932Y223116D01*
X753809Y223546D01*
X753714Y223993D01*
X753646Y224458D01*
X753605Y224941D01*
X753591Y225441D01*
X753591Y236446D01*
X755935Y236446D01*
X755935Y225638D01*
X755953Y225063D01*
X756010Y224525D01*
X756104Y224022D01*
X756235Y223555D01*
X756404Y223124D01*
X756611Y222728D01*
X756855Y222368D01*
X757137Y222043D01*
X757454Y221755D01*
X757805Y221506D01*
X758189Y221295D01*
X758606Y221123D01*
X759057Y220989D01*
X759541Y220893D01*
X760058Y220835D01*
X760609Y220816D01*
X761175Y220836D01*
X761709Y220896D01*
X762211Y220995D01*
X762681Y221134D01*
X763118Y221312D01*
X763522Y221530D01*
X763894Y221788D01*
X764234Y222086D01*
X764537Y222422D01*
X764800Y222794D01*
X765023Y223203D01*
X765205Y223649D01*
X765346Y224131D01*
X765447Y224650D01*
X765508Y225205D01*
X765528Y225797D01*
X765528Y236446D01*
X767859Y236446D01*
X767859Y225662D01*
X767845Y225147D01*
X767804Y224649D01*
X767734Y224170D01*
X767637Y223708D01*
X767512Y223265D01*
X767359Y222840D01*
X767178Y222432D01*
X766970Y222043D01*
X766736Y221674D01*
X766479Y221327D01*
X766199Y221003D01*
X765896Y220701D01*
X765570Y220422D01*
X765222Y220165D01*
X764850Y219930D01*
X764455Y219718D01*
X764039Y219530D01*
X763606Y219367D01*
X763154Y219229D01*
X762684Y219116D01*
X762195Y219028D01*
X761689Y218965D01*
X761164Y218927D01*
X760621Y218915D01*
G37*
G36*
X796525Y219160D02*
X785692Y219160D01*
X785692Y221037D01*
X790096Y221037D01*
X790096Y234336D01*
X786195Y231551D01*
X786195Y233636D01*
X790280Y236446D01*
X792317Y236446D01*
X792317Y221037D01*
X796525Y221037D01*
X796525Y219160D01*
G37*
G36*
X949452Y615095D02*
X949080Y615103D01*
X948719Y615129D01*
X948370Y615172D01*
X948034Y615233D01*
X947709Y615310D01*
X947396Y615405D01*
X947096Y615517D01*
X946807Y615647D01*
X946533Y615792D01*
X946274Y615954D01*
X946031Y616131D01*
X945805Y616323D01*
X945594Y616531D01*
X945398Y616755D01*
X945219Y616994D01*
X945056Y617249D01*
X944910Y617518D01*
X944784Y617800D01*
X944677Y618094D01*
X944589Y618401D01*
X944521Y618721D01*
X944473Y619053D01*
X944444Y619397D01*
X944434Y619754D01*
X944434Y627611D01*
X946107Y627611D01*
X946107Y619895D01*
X946120Y619485D01*
X946160Y619100D01*
X946227Y618741D01*
X946321Y618408D01*
X946442Y618100D01*
X946590Y617817D01*
X946764Y617560D01*
X946965Y617328D01*
X947192Y617123D01*
X947442Y616945D01*
X947716Y616795D01*
X948014Y616671D01*
X948336Y616576D01*
X948681Y616507D01*
X949051Y616466D01*
X949444Y616452D01*
X949848Y616467D01*
X950230Y616509D01*
X950588Y616580D01*
X950923Y616679D01*
X951235Y616807D01*
X951524Y616962D01*
X951789Y617146D01*
X952032Y617359D01*
X952248Y617599D01*
X952436Y617864D01*
X952595Y618156D01*
X952725Y618475D01*
X952826Y618819D01*
X952898Y619189D01*
X952941Y619586D01*
X952956Y620008D01*
X952956Y627611D01*
X954620Y627611D01*
X954620Y619912D01*
X954610Y619544D01*
X954580Y619189D01*
X954531Y618847D01*
X954461Y618517D01*
X954372Y618201D01*
X954263Y617897D01*
X954134Y617606D01*
X953985Y617328D01*
X953818Y617065D01*
X953635Y616817D01*
X953435Y616586D01*
X953219Y616370D01*
X952986Y616171D01*
X952737Y615987D01*
X952471Y615820D01*
X952190Y615669D01*
X951893Y615534D01*
X951583Y615418D01*
X951261Y615319D01*
X950925Y615238D01*
X950576Y615176D01*
X950215Y615131D01*
X949840Y615104D01*
X949452Y615095D01*
G37*
G36*
X965119Y615270D02*
X957385Y615270D01*
X957385Y616610D01*
X960529Y616610D01*
X960529Y626104D01*
X957744Y624116D01*
X957744Y625605D01*
X960661Y627611D01*
X962115Y627611D01*
X962115Y616610D01*
X965119Y616610D01*
X965119Y615270D01*
G37*
G36*
X729202Y816725D02*
X728830Y816733D01*
X728469Y816759D01*
X728120Y816802D01*
X727784Y816863D01*
X727459Y816940D01*
X727146Y817035D01*
X726846Y817147D01*
X726557Y817277D01*
X726283Y817422D01*
X726024Y817584D01*
X725781Y817761D01*
X725555Y817953D01*
X725344Y818161D01*
X725148Y818385D01*
X724969Y818624D01*
X724806Y818879D01*
X724660Y819148D01*
X724534Y819430D01*
X724427Y819724D01*
X724339Y820031D01*
X724271Y820351D01*
X724223Y820683D01*
X724194Y821027D01*
X724184Y821384D01*
X724184Y829241D01*
X725857Y829241D01*
X725857Y821525D01*
X725870Y821115D01*
X725910Y820730D01*
X725977Y820371D01*
X726071Y820038D01*
X726192Y819730D01*
X726340Y819447D01*
X726514Y819190D01*
X726715Y818958D01*
X726942Y818753D01*
X727192Y818575D01*
X727466Y818425D01*
X727764Y818301D01*
X728086Y818206D01*
X728431Y818137D01*
X728801Y818096D01*
X729194Y818082D01*
X729598Y818097D01*
X729980Y818139D01*
X730338Y818210D01*
X730673Y818309D01*
X730985Y818437D01*
X731274Y818592D01*
X731539Y818776D01*
X731782Y818989D01*
X731998Y819229D01*
X732186Y819494D01*
X732345Y819786D01*
X732475Y820105D01*
X732576Y820449D01*
X732648Y820819D01*
X732691Y821216D01*
X732706Y821638D01*
X732706Y829241D01*
X734370Y829241D01*
X734370Y821542D01*
X734360Y821174D01*
X734330Y820819D01*
X734281Y820477D01*
X734211Y820147D01*
X734122Y819831D01*
X734013Y819527D01*
X733884Y819236D01*
X733735Y818958D01*
X733568Y818695D01*
X733385Y818447D01*
X733185Y818216D01*
X732969Y818000D01*
X732736Y817801D01*
X732487Y817617D01*
X732221Y817450D01*
X731940Y817299D01*
X731643Y817164D01*
X731333Y817048D01*
X731011Y816949D01*
X730675Y816868D01*
X730326Y816806D01*
X729965Y816761D01*
X729590Y816734D01*
X729202Y816725D01*
G37*
G36*
X744843Y816900D02*
X736671Y816900D01*
X736671Y818012D01*
X736907Y818510D01*
X737167Y818977D01*
X737452Y819414D01*
X737761Y819821D01*
X738087Y820204D01*
X738421Y820568D01*
X738764Y820913D01*
X739115Y821240D01*
X739821Y821852D01*
X740520Y822418D01*
X741183Y822961D01*
X741777Y823504D01*
X742044Y823779D01*
X742284Y824060D01*
X742497Y824348D01*
X742684Y824643D01*
X742835Y824950D01*
X742943Y825278D01*
X743008Y825625D01*
X743030Y825991D01*
X743020Y826238D01*
X742992Y826471D01*
X742946Y826689D01*
X742881Y826893D01*
X742797Y827083D01*
X742695Y827259D01*
X742574Y827421D01*
X742434Y827568D01*
X742278Y827699D01*
X742107Y827813D01*
X741922Y827909D01*
X741722Y827988D01*
X741508Y828050D01*
X741280Y828093D01*
X741036Y828120D01*
X740779Y828128D01*
X740532Y828120D01*
X740297Y828094D01*
X740073Y828051D01*
X739860Y827992D01*
X739658Y827915D01*
X739467Y827821D01*
X739288Y827709D01*
X739119Y827581D01*
X738964Y827437D01*
X738826Y827280D01*
X738705Y827108D01*
X738601Y826923D01*
X738514Y826724D01*
X738443Y826511D01*
X738389Y826284D01*
X738353Y826044D01*
X736741Y826193D01*
X736799Y826553D01*
X736885Y826895D01*
X737000Y827218D01*
X737143Y827522D01*
X737314Y827807D01*
X737514Y828073D01*
X737742Y828320D01*
X737998Y828549D01*
X738278Y828754D01*
X738577Y828932D01*
X738896Y829083D01*
X739234Y829206D01*
X739591Y829302D01*
X739968Y829370D01*
X740363Y829411D01*
X740779Y829425D01*
X741232Y829411D01*
X741658Y829370D01*
X742056Y829301D01*
X742429Y829205D01*
X742774Y829081D01*
X743092Y828930D01*
X743383Y828751D01*
X743647Y828544D01*
X743882Y828313D01*
X744086Y828058D01*
X744258Y827780D01*
X744399Y827479D01*
X744509Y827155D01*
X744587Y826808D01*
X744634Y826437D01*
X744650Y826044D01*
X744629Y825685D01*
X744568Y825328D01*
X744465Y824972D01*
X744321Y824616D01*
X744137Y824262D01*
X743913Y823907D01*
X743649Y823552D01*
X743345Y823197D01*
X742947Y822794D01*
X742401Y822293D01*
X741708Y821695D01*
X740866Y820999D01*
X740388Y820597D01*
X739962Y820216D01*
X739587Y819855D01*
X739263Y819514D01*
X738986Y819187D01*
X738751Y818865D01*
X738557Y818550D01*
X738405Y818240D01*
X744843Y818240D01*
X744843Y816900D01*
G37*
G36*
X1059688Y729596D02*
X1047347Y729596D01*
X1047347Y734790D01*
X1047362Y735294D01*
X1047408Y735769D01*
X1047484Y736215D01*
X1047590Y736631D01*
X1047727Y737018D01*
X1047894Y737376D01*
X1048092Y737705D01*
X1048319Y738004D01*
X1048575Y738271D01*
X1048855Y738502D01*
X1049161Y738698D01*
X1049491Y738858D01*
X1049846Y738983D01*
X1050226Y739072D01*
X1050631Y739125D01*
X1051061Y739143D01*
X1051488Y739125D01*
X1051892Y739071D01*
X1052274Y738982D01*
X1052633Y738857D01*
X1052970Y738696D01*
X1053284Y738500D01*
X1053576Y738268D01*
X1053846Y738000D01*
X1054088Y737701D01*
X1054298Y737377D01*
X1054476Y737027D01*
X1054621Y736652D01*
X1054734Y736251D01*
X1054815Y735825D01*
X1054863Y735373D01*
X1054880Y734895D01*
X1054880Y731269D01*
X1059688Y731269D01*
X1059688Y729596D01*
G37*
%LPC*%
G36*
X1053557Y731269D02*
X1053557Y734658D01*
X1053547Y734998D01*
X1053518Y735315D01*
X1053470Y735611D01*
X1053402Y735885D01*
X1053315Y736136D01*
X1053208Y736366D01*
X1053083Y736574D01*
X1052937Y736760D01*
X1052773Y736925D01*
X1052589Y737067D01*
X1052385Y737187D01*
X1052163Y737286D01*
X1051921Y737363D01*
X1051659Y737417D01*
X1051379Y737450D01*
X1051078Y737461D01*
X1050789Y737450D01*
X1050518Y737416D01*
X1050266Y737360D01*
X1050032Y737282D01*
X1049817Y737181D01*
X1049621Y737057D01*
X1049444Y736911D01*
X1049285Y736743D01*
X1049145Y736552D01*
X1049024Y736339D01*
X1048921Y736103D01*
X1048837Y735845D01*
X1048771Y735565D01*
X1048725Y735262D01*
X1048697Y734936D01*
X1048687Y734588D01*
X1048687Y731269D01*
X1053557Y731269D01*
G37*
%LPD*%
G36*
X1056894Y740505D02*
X1055668Y740505D01*
X1047347Y746154D01*
X1047347Y747810D01*
X1055650Y747810D01*
X1055650Y749544D01*
X1056894Y749544D01*
X1056894Y747810D01*
X1059688Y747810D01*
X1059688Y746321D01*
X1056894Y746321D01*
X1056894Y740505D01*
G37*
%LPC*%
G36*
X1055650Y741959D02*
X1055650Y746321D01*
X1049125Y746321D01*
X1049589Y746075D01*
X1050167Y745734D01*
X1054827Y742572D01*
X1055475Y742099D01*
X1055650Y741959D01*
G37*
%LPD*%
G36*
X1056623Y719436D02*
X1056351Y721074D01*
X1056598Y721119D01*
X1056831Y721177D01*
X1057050Y721248D01*
X1057255Y721330D01*
X1057447Y721425D01*
X1057624Y721532D01*
X1057787Y721652D01*
X1057936Y721783D01*
X1058070Y721926D01*
X1058185Y722077D01*
X1058283Y722237D01*
X1058363Y722405D01*
X1058426Y722583D01*
X1058470Y722769D01*
X1058497Y722964D01*
X1058506Y723167D01*
X1058496Y723389D01*
X1058466Y723599D01*
X1058418Y723796D01*
X1058349Y723982D01*
X1058261Y724155D01*
X1058153Y724317D01*
X1058026Y724466D01*
X1057879Y724604D01*
X1057714Y724727D01*
X1057530Y724833D01*
X1057328Y724924D01*
X1057108Y724998D01*
X1056869Y725055D01*
X1056612Y725096D01*
X1056338Y725121D01*
X1056044Y725129D01*
X1048714Y725129D01*
X1048714Y722756D01*
X1047347Y722756D01*
X1047347Y726793D01*
X1056009Y726793D01*
X1056446Y726778D01*
X1056859Y726732D01*
X1057248Y726656D01*
X1057613Y726550D01*
X1057954Y726413D01*
X1058272Y726246D01*
X1058565Y726049D01*
X1058834Y725821D01*
X1059075Y725567D01*
X1059284Y725290D01*
X1059461Y724991D01*
X1059606Y724669D01*
X1059718Y724325D01*
X1059799Y723959D01*
X1059847Y723570D01*
X1059863Y723158D01*
X1059851Y722776D01*
X1059813Y722414D01*
X1059749Y722072D01*
X1059661Y721750D01*
X1059547Y721448D01*
X1059407Y721165D01*
X1059243Y720903D01*
X1059053Y720660D01*
X1058838Y720437D01*
X1058597Y720235D01*
X1058331Y720052D01*
X1058040Y719889D01*
X1057724Y719746D01*
X1057382Y719623D01*
X1057015Y719519D01*
X1056623Y719436D01*
G37*
G36*
X1097788Y729596D02*
X1085447Y729596D01*
X1085447Y734790D01*
X1085462Y735294D01*
X1085508Y735769D01*
X1085584Y736215D01*
X1085690Y736631D01*
X1085827Y737018D01*
X1085994Y737376D01*
X1086192Y737705D01*
X1086419Y738004D01*
X1086675Y738271D01*
X1086955Y738502D01*
X1087261Y738698D01*
X1087591Y738858D01*
X1087946Y738983D01*
X1088326Y739072D01*
X1088731Y739125D01*
X1089161Y739143D01*
X1089588Y739125D01*
X1089992Y739071D01*
X1090374Y738982D01*
X1090733Y738857D01*
X1091070Y738696D01*
X1091384Y738500D01*
X1091676Y738268D01*
X1091946Y738000D01*
X1092188Y737701D01*
X1092398Y737377D01*
X1092576Y737027D01*
X1092721Y736652D01*
X1092834Y736251D01*
X1092915Y735825D01*
X1092963Y735373D01*
X1092980Y734895D01*
X1092980Y731269D01*
X1097788Y731269D01*
X1097788Y729596D01*
G37*
%LPC*%
G36*
X1091657Y731269D02*
X1091657Y734658D01*
X1091647Y734998D01*
X1091618Y735315D01*
X1091570Y735611D01*
X1091502Y735885D01*
X1091415Y736136D01*
X1091308Y736366D01*
X1091183Y736574D01*
X1091037Y736760D01*
X1090873Y736925D01*
X1090689Y737067D01*
X1090485Y737187D01*
X1090263Y737286D01*
X1090021Y737363D01*
X1089759Y737417D01*
X1089479Y737450D01*
X1089178Y737461D01*
X1088889Y737450D01*
X1088618Y737416D01*
X1088366Y737360D01*
X1088132Y737282D01*
X1087917Y737181D01*
X1087721Y737057D01*
X1087544Y736911D01*
X1087385Y736743D01*
X1087245Y736552D01*
X1087124Y736339D01*
X1087021Y736103D01*
X1086937Y735845D01*
X1086871Y735565D01*
X1086825Y735262D01*
X1086797Y734936D01*
X1086787Y734588D01*
X1086787Y731269D01*
X1091657Y731269D01*
G37*
%LPD*%
G36*
X1095029Y740811D02*
X1094845Y742406D01*
X1095067Y742474D01*
X1095274Y742555D01*
X1095467Y742648D01*
X1095646Y742753D01*
X1095810Y742871D01*
X1095961Y743000D01*
X1096097Y743142D01*
X1096218Y743297D01*
X1096325Y743463D01*
X1096418Y743642D01*
X1096497Y743833D01*
X1096561Y744036D01*
X1096611Y744252D01*
X1096647Y744480D01*
X1096669Y744720D01*
X1096676Y744972D01*
X1096664Y745281D01*
X1096628Y745572D01*
X1096568Y745847D01*
X1096484Y746104D01*
X1096376Y746344D01*
X1096245Y746566D01*
X1096089Y746772D01*
X1095909Y746960D01*
X1095709Y747128D01*
X1095490Y747274D01*
X1095254Y747398D01*
X1095000Y747499D01*
X1094727Y747577D01*
X1094437Y747633D01*
X1094129Y747667D01*
X1093803Y747678D01*
X1093519Y747667D01*
X1093248Y747633D01*
X1092992Y747577D01*
X1092750Y747498D01*
X1092521Y747396D01*
X1092307Y747272D01*
X1092106Y747125D01*
X1091920Y746956D01*
X1091751Y746767D01*
X1091606Y746563D01*
X1091482Y746343D01*
X1091381Y746107D01*
X1091303Y745856D01*
X1091246Y745588D01*
X1091213Y745305D01*
X1091202Y745007D01*
X1091214Y744693D01*
X1091252Y744389D01*
X1091315Y744097D01*
X1091403Y743816D01*
X1091521Y743540D01*
X1091675Y743264D01*
X1091863Y742988D01*
X1092086Y742712D01*
X1092086Y741171D01*
X1085447Y741582D01*
X1085447Y748598D01*
X1086787Y748598D01*
X1086787Y743019D01*
X1090702Y742782D01*
X1090518Y743046D01*
X1090358Y743326D01*
X1090222Y743621D01*
X1090111Y743932D01*
X1090025Y744258D01*
X1089963Y744600D01*
X1089926Y744958D01*
X1089914Y745331D01*
X1089931Y745775D01*
X1089981Y746195D01*
X1090064Y746593D01*
X1090181Y746968D01*
X1090331Y747319D01*
X1090515Y747647D01*
X1090732Y747952D01*
X1090983Y748234D01*
X1091260Y748488D01*
X1091557Y748708D01*
X1091875Y748893D01*
X1092213Y749046D01*
X1092571Y749164D01*
X1092950Y749248D01*
X1093349Y749299D01*
X1093768Y749316D01*
X1094243Y749298D01*
X1094692Y749243D01*
X1095116Y749153D01*
X1095513Y749026D01*
X1095884Y748863D01*
X1096230Y748663D01*
X1096549Y748427D01*
X1096842Y748155D01*
X1097105Y747851D01*
X1097333Y747519D01*
X1097525Y747159D01*
X1097683Y746771D01*
X1097806Y746354D01*
X1097893Y745910D01*
X1097946Y745437D01*
X1097963Y744937D01*
X1097951Y744516D01*
X1097916Y744116D01*
X1097857Y743736D01*
X1097775Y743378D01*
X1097669Y743040D01*
X1097540Y742723D01*
X1097387Y742427D01*
X1097210Y742152D01*
X1097011Y741899D01*
X1096791Y741670D01*
X1096550Y741466D01*
X1096288Y741287D01*
X1096005Y741131D01*
X1095701Y741000D01*
X1095375Y740894D01*
X1095029Y740811D01*
G37*
G36*
X1094723Y719436D02*
X1094451Y721074D01*
X1094698Y721119D01*
X1094931Y721177D01*
X1095150Y721248D01*
X1095355Y721330D01*
X1095547Y721425D01*
X1095724Y721532D01*
X1095887Y721652D01*
X1096036Y721783D01*
X1096170Y721926D01*
X1096285Y722077D01*
X1096383Y722237D01*
X1096463Y722405D01*
X1096526Y722583D01*
X1096570Y722769D01*
X1096597Y722964D01*
X1096606Y723167D01*
X1096596Y723389D01*
X1096566Y723599D01*
X1096518Y723796D01*
X1096449Y723982D01*
X1096361Y724155D01*
X1096253Y724317D01*
X1096126Y724466D01*
X1095979Y724604D01*
X1095814Y724727D01*
X1095630Y724833D01*
X1095428Y724924D01*
X1095208Y724998D01*
X1094969Y725055D01*
X1094712Y725096D01*
X1094438Y725121D01*
X1094144Y725129D01*
X1086814Y725129D01*
X1086814Y722756D01*
X1085447Y722756D01*
X1085447Y726793D01*
X1094109Y726793D01*
X1094546Y726778D01*
X1094959Y726732D01*
X1095348Y726656D01*
X1095713Y726550D01*
X1096054Y726413D01*
X1096372Y726246D01*
X1096665Y726049D01*
X1096934Y725821D01*
X1097175Y725567D01*
X1097384Y725290D01*
X1097561Y724991D01*
X1097706Y724669D01*
X1097818Y724325D01*
X1097899Y723959D01*
X1097947Y723570D01*
X1097963Y723158D01*
X1097951Y722776D01*
X1097913Y722414D01*
X1097849Y722072D01*
X1097761Y721750D01*
X1097647Y721448D01*
X1097507Y721165D01*
X1097343Y720903D01*
X1097153Y720660D01*
X1096938Y720437D01*
X1096697Y720235D01*
X1096431Y720052D01*
X1096140Y719889D01*
X1095824Y719746D01*
X1095482Y719623D01*
X1095115Y719519D01*
X1094723Y719436D01*
G37*
G36*
X614988Y379276D02*
X602647Y379276D01*
X602647Y384470D01*
X602662Y384974D01*
X602708Y385449D01*
X602784Y385895D01*
X602890Y386311D01*
X603027Y386698D01*
X603194Y387056D01*
X603392Y387385D01*
X603619Y387684D01*
X603875Y387951D01*
X604155Y388182D01*
X604461Y388378D01*
X604791Y388538D01*
X605146Y388663D01*
X605526Y388752D01*
X605931Y388805D01*
X606361Y388823D01*
X606788Y388805D01*
X607192Y388751D01*
X607574Y388662D01*
X607933Y388537D01*
X608270Y388376D01*
X608584Y388180D01*
X608876Y387948D01*
X609146Y387680D01*
X609388Y387381D01*
X609598Y387057D01*
X609776Y386707D01*
X609921Y386332D01*
X610034Y385931D01*
X610115Y385505D01*
X610163Y385053D01*
X610180Y384575D01*
X610180Y380949D01*
X614988Y380949D01*
X614988Y379276D01*
G37*
%LPC*%
G36*
X608857Y380949D02*
X608857Y384338D01*
X608847Y384678D01*
X608818Y384995D01*
X608770Y385291D01*
X608702Y385565D01*
X608615Y385816D01*
X608508Y386046D01*
X608383Y386254D01*
X608237Y386440D01*
X608073Y386605D01*
X607889Y386747D01*
X607685Y386867D01*
X607463Y386966D01*
X607221Y387043D01*
X606959Y387097D01*
X606679Y387130D01*
X606378Y387141D01*
X606089Y387130D01*
X605818Y387096D01*
X605566Y387040D01*
X605332Y386962D01*
X605117Y386861D01*
X604921Y386737D01*
X604744Y386591D01*
X604585Y386423D01*
X604445Y386232D01*
X604324Y386019D01*
X604221Y385783D01*
X604137Y385525D01*
X604071Y385245D01*
X604025Y384942D01*
X603997Y384616D01*
X603987Y384268D01*
X603987Y380949D01*
X608857Y380949D01*
G37*
%LPD*%
G36*
X614988Y390675D02*
X613876Y390675D01*
X613378Y390911D01*
X612911Y391171D01*
X612474Y391456D01*
X612067Y391766D01*
X611684Y392092D01*
X611320Y392426D01*
X610975Y392768D01*
X610648Y393119D01*
X610036Y393825D01*
X609470Y394525D01*
X608927Y395187D01*
X608384Y395782D01*
X608109Y396048D01*
X607828Y396289D01*
X607540Y396502D01*
X607245Y396688D01*
X606938Y396839D01*
X606610Y396948D01*
X606263Y397012D01*
X605897Y397034D01*
X605650Y397025D01*
X605417Y396997D01*
X605199Y396950D01*
X604995Y396885D01*
X604805Y396801D01*
X604629Y396699D01*
X604467Y396578D01*
X604320Y396439D01*
X604189Y396282D01*
X604075Y396112D01*
X603979Y395927D01*
X603900Y395727D01*
X603838Y395513D01*
X603795Y395284D01*
X603768Y395041D01*
X603760Y394783D01*
X603768Y394537D01*
X603794Y394302D01*
X603837Y394078D01*
X603896Y393865D01*
X603973Y393663D01*
X604067Y393472D01*
X604179Y393292D01*
X604307Y393123D01*
X604451Y392969D01*
X604608Y392831D01*
X604780Y392710D01*
X604965Y392606D01*
X605164Y392518D01*
X605377Y392448D01*
X605604Y392394D01*
X605844Y392357D01*
X605695Y390745D01*
X605335Y390803D01*
X604993Y390890D01*
X604670Y391004D01*
X604366Y391147D01*
X604081Y391319D01*
X603815Y391518D01*
X603568Y391746D01*
X603339Y392002D01*
X603134Y392282D01*
X602956Y392582D01*
X602805Y392900D01*
X602682Y393238D01*
X602586Y393596D01*
X602518Y393972D01*
X602477Y394368D01*
X602463Y394783D01*
X602477Y395236D01*
X602518Y395662D01*
X602587Y396061D01*
X602683Y396433D01*
X602807Y396778D01*
X602958Y397096D01*
X603137Y397387D01*
X603344Y397652D01*
X603575Y397887D01*
X603830Y398090D01*
X604108Y398263D01*
X604409Y398404D01*
X604733Y398513D01*
X605080Y398592D01*
X605451Y398639D01*
X605844Y398654D01*
X606203Y398634D01*
X606560Y398572D01*
X606916Y398470D01*
X607272Y398326D01*
X607626Y398142D01*
X607981Y397918D01*
X608336Y397653D01*
X608691Y397349D01*
X609094Y396951D01*
X609595Y396406D01*
X610193Y395712D01*
X610889Y394871D01*
X611291Y394393D01*
X611672Y393966D01*
X612033Y393591D01*
X612374Y393268D01*
X612701Y392991D01*
X613023Y392756D01*
X613338Y392562D01*
X613648Y392410D01*
X613648Y398847D01*
X614988Y398847D01*
X614988Y390675D01*
G37*
G36*
X611923Y369116D02*
X611651Y370754D01*
X611898Y370799D01*
X612131Y370857D01*
X612350Y370928D01*
X612555Y371010D01*
X612747Y371105D01*
X612924Y371212D01*
X613087Y371332D01*
X613236Y371463D01*
X613370Y371606D01*
X613485Y371757D01*
X613583Y371917D01*
X613663Y372085D01*
X613726Y372263D01*
X613770Y372449D01*
X613797Y372644D01*
X613806Y372847D01*
X613796Y373069D01*
X613766Y373279D01*
X613718Y373476D01*
X613649Y373662D01*
X613561Y373835D01*
X613453Y373997D01*
X613326Y374146D01*
X613179Y374284D01*
X613014Y374407D01*
X612830Y374513D01*
X612628Y374604D01*
X612408Y374678D01*
X612169Y374735D01*
X611912Y374776D01*
X611638Y374801D01*
X611344Y374809D01*
X604014Y374809D01*
X604014Y372436D01*
X602647Y372436D01*
X602647Y376473D01*
X611309Y376473D01*
X611746Y376458D01*
X612159Y376412D01*
X612548Y376336D01*
X612913Y376230D01*
X613254Y376093D01*
X613572Y375926D01*
X613865Y375729D01*
X614134Y375501D01*
X614375Y375247D01*
X614584Y374970D01*
X614761Y374671D01*
X614906Y374349D01*
X615018Y374005D01*
X615099Y373639D01*
X615147Y373250D01*
X615163Y372838D01*
X615151Y372456D01*
X615113Y372094D01*
X615049Y371752D01*
X614961Y371430D01*
X614847Y371128D01*
X614707Y370845D01*
X614543Y370583D01*
X614353Y370340D01*
X614138Y370117D01*
X613897Y369915D01*
X613631Y369732D01*
X613340Y369569D01*
X613024Y369426D01*
X612682Y369303D01*
X612315Y369199D01*
X611923Y369116D01*
G37*
D10*
X984250Y711200D02*
X990600Y704850D01*
X990600Y692150D01*
X984250Y685800D01*
X971550Y685800D01*
X965200Y692150D01*
X965200Y704850D01*
X971550Y711200D01*
X990600Y742950D02*
X990600Y755650D01*
X990600Y742950D02*
X984250Y736600D01*
X971550Y736600D01*
X965200Y742950D01*
X984250Y736600D02*
X990600Y730250D01*
X990600Y717550D01*
X984250Y711200D01*
X971550Y711200D01*
X965200Y717550D01*
X965200Y730250D01*
X971550Y736600D01*
X971550Y762000D02*
X984250Y762000D01*
X990600Y755650D01*
X971550Y762000D02*
X965200Y755650D01*
X965200Y742950D01*
X990600Y679450D02*
X990600Y666750D01*
X984250Y660400D01*
X971550Y660400D01*
X965200Y666750D01*
X984250Y685800D02*
X990600Y679450D01*
X971550Y685800D02*
X965200Y679450D01*
X965200Y666750D01*
X848360Y260350D02*
X848360Y247650D01*
X869950Y238760D02*
X878840Y247650D01*
X878840Y260350D02*
X869950Y269240D01*
X878840Y260350D02*
X878840Y247650D01*
X857250Y269240D02*
X848360Y260350D01*
X857250Y269240D02*
X869950Y269240D01*
X848360Y247650D02*
X857250Y238760D01*
X869950Y238760D01*
X899160Y247650D02*
X899160Y260350D01*
X920750Y238760D02*
X929640Y247650D01*
X929640Y260350D02*
X920750Y269240D01*
X929640Y260350D02*
X929640Y247650D01*
X908050Y269240D02*
X899160Y260350D01*
X908050Y269240D02*
X920750Y269240D01*
X899160Y247650D02*
X908050Y238760D01*
X920750Y238760D01*
D11*
X581650Y461000D02*
X561350Y461000D01*
X581650Y461000D02*
X581650Y504200D01*
X561350Y504200D01*
X561350Y461000D01*
X571500Y461000D02*
X571500Y455240D01*
X571500Y504200D02*
X571500Y509960D01*
X624850Y461000D02*
X645150Y461000D01*
X645150Y504200D01*
X624850Y504200D01*
X624850Y461000D01*
X635000Y461000D02*
X635000Y455240D01*
X635000Y504200D02*
X635000Y509960D01*
D10*
X643636Y690626D02*
X643636Y742950D01*
X624332Y748030D02*
X600710Y748030D01*
X581152Y742950D02*
X581152Y694944D01*
X600710Y685546D02*
X624332Y685546D01*
X643636Y628650D02*
X643636Y576326D01*
X624332Y633730D02*
X600710Y633730D01*
X581152Y628650D02*
X581152Y580644D01*
X600710Y571246D02*
X624332Y571246D01*
X829050Y307160D02*
X829050Y239160D01*
X720350Y239160D01*
X720350Y307160D01*
X829050Y307160D01*
D12*
X924050Y596900D02*
X924052Y596963D01*
X924058Y597025D01*
X924068Y597087D01*
X924081Y597149D01*
X924099Y597209D01*
X924120Y597268D01*
X924145Y597326D01*
X924174Y597382D01*
X924206Y597436D01*
X924241Y597488D01*
X924279Y597537D01*
X924321Y597585D01*
X924365Y597629D01*
X924413Y597671D01*
X924462Y597709D01*
X924514Y597744D01*
X924568Y597776D01*
X924624Y597805D01*
X924682Y597830D01*
X924741Y597851D01*
X924801Y597869D01*
X924863Y597882D01*
X924925Y597892D01*
X924987Y597898D01*
X925050Y597900D01*
X925113Y597898D01*
X925175Y597892D01*
X925237Y597882D01*
X925299Y597869D01*
X925359Y597851D01*
X925418Y597830D01*
X925476Y597805D01*
X925532Y597776D01*
X925586Y597744D01*
X925638Y597709D01*
X925687Y597671D01*
X925735Y597629D01*
X925779Y597585D01*
X925821Y597537D01*
X925859Y597488D01*
X925894Y597436D01*
X925926Y597382D01*
X925955Y597326D01*
X925980Y597268D01*
X926001Y597209D01*
X926019Y597149D01*
X926032Y597087D01*
X926042Y597025D01*
X926048Y596963D01*
X926050Y596900D01*
X926048Y596837D01*
X926042Y596775D01*
X926032Y596713D01*
X926019Y596651D01*
X926001Y596591D01*
X925980Y596532D01*
X925955Y596474D01*
X925926Y596418D01*
X925894Y596364D01*
X925859Y596312D01*
X925821Y596263D01*
X925779Y596215D01*
X925735Y596171D01*
X925687Y596129D01*
X925638Y596091D01*
X925586Y596056D01*
X925532Y596024D01*
X925476Y595995D01*
X925418Y595970D01*
X925359Y595949D01*
X925299Y595931D01*
X925237Y595918D01*
X925175Y595908D01*
X925113Y595902D01*
X925050Y595900D01*
X924987Y595902D01*
X924925Y595908D01*
X924863Y595918D01*
X924801Y595931D01*
X924741Y595949D01*
X924682Y595970D01*
X924624Y595995D01*
X924568Y596024D01*
X924514Y596056D01*
X924462Y596091D01*
X924413Y596129D01*
X924365Y596171D01*
X924321Y596215D01*
X924279Y596263D01*
X924241Y596312D01*
X924206Y596364D01*
X924174Y596418D01*
X924145Y596474D01*
X924120Y596532D01*
X924099Y596591D01*
X924081Y596651D01*
X924068Y596713D01*
X924058Y596775D01*
X924052Y596837D01*
X924050Y596900D01*
D11*
X942400Y611500D02*
X1013400Y611500D01*
X1013400Y379100D02*
X942400Y379100D01*
X901700Y812800D02*
X723900Y812800D01*
X901700Y812800D02*
X901700Y381000D01*
X723900Y381000D01*
X723900Y812800D01*
D12*
X714300Y776900D02*
X714302Y776963D01*
X714308Y777025D01*
X714318Y777087D01*
X714331Y777149D01*
X714349Y777209D01*
X714370Y777268D01*
X714395Y777326D01*
X714424Y777382D01*
X714456Y777436D01*
X714491Y777488D01*
X714529Y777537D01*
X714571Y777585D01*
X714615Y777629D01*
X714663Y777671D01*
X714712Y777709D01*
X714764Y777744D01*
X714818Y777776D01*
X714874Y777805D01*
X714932Y777830D01*
X714991Y777851D01*
X715051Y777869D01*
X715113Y777882D01*
X715175Y777892D01*
X715237Y777898D01*
X715300Y777900D01*
X715363Y777898D01*
X715425Y777892D01*
X715487Y777882D01*
X715549Y777869D01*
X715609Y777851D01*
X715668Y777830D01*
X715726Y777805D01*
X715782Y777776D01*
X715836Y777744D01*
X715888Y777709D01*
X715937Y777671D01*
X715985Y777629D01*
X716029Y777585D01*
X716071Y777537D01*
X716109Y777488D01*
X716144Y777436D01*
X716176Y777382D01*
X716205Y777326D01*
X716230Y777268D01*
X716251Y777209D01*
X716269Y777149D01*
X716282Y777087D01*
X716292Y777025D01*
X716298Y776963D01*
X716300Y776900D01*
X716298Y776837D01*
X716292Y776775D01*
X716282Y776713D01*
X716269Y776651D01*
X716251Y776591D01*
X716230Y776532D01*
X716205Y776474D01*
X716176Y776418D01*
X716144Y776364D01*
X716109Y776312D01*
X716071Y776263D01*
X716029Y776215D01*
X715985Y776171D01*
X715937Y776129D01*
X715888Y776091D01*
X715836Y776056D01*
X715782Y776024D01*
X715726Y775995D01*
X715668Y775970D01*
X715609Y775949D01*
X715549Y775931D01*
X715487Y775918D01*
X715425Y775908D01*
X715363Y775902D01*
X715300Y775900D01*
X715237Y775902D01*
X715175Y775908D01*
X715113Y775918D01*
X715051Y775931D01*
X714991Y775949D01*
X714932Y775970D01*
X714874Y775995D01*
X714818Y776024D01*
X714764Y776056D01*
X714712Y776091D01*
X714663Y776129D01*
X714615Y776171D01*
X714571Y776215D01*
X714529Y776263D01*
X714491Y776312D01*
X714456Y776364D01*
X714424Y776418D01*
X714395Y776474D01*
X714370Y776532D01*
X714349Y776591D01*
X714331Y776651D01*
X714318Y776713D01*
X714308Y776775D01*
X714302Y776837D01*
X714300Y776900D01*
D10*
X1041400Y742950D02*
X1041400Y730250D01*
X1035050Y723900D01*
X1022350Y723900D01*
X1016000Y730250D01*
X1035050Y723900D02*
X1041400Y717550D01*
X1041400Y704850D01*
X1035050Y698500D01*
X1022350Y698500D01*
X1016000Y704850D01*
X1016000Y717550D01*
X1022350Y723900D01*
X1022350Y749300D02*
X1035050Y749300D01*
X1041400Y742950D01*
X1022350Y749300D02*
X1016000Y742950D01*
X1016000Y730250D01*
X1035050Y698500D02*
X1041400Y692150D01*
X1041400Y679450D01*
X1035050Y673100D01*
X1022350Y673100D01*
X1016000Y679450D01*
X1016000Y692150D01*
X1022350Y698500D01*
X1079500Y730250D02*
X1079500Y742950D01*
X1079500Y730250D02*
X1073150Y723900D01*
X1060450Y723900D01*
X1054100Y730250D01*
X1073150Y723900D02*
X1079500Y717550D01*
X1079500Y704850D01*
X1073150Y698500D01*
X1060450Y698500D01*
X1054100Y704850D01*
X1054100Y717550D01*
X1060450Y723900D01*
X1060450Y749300D02*
X1073150Y749300D01*
X1079500Y742950D01*
X1060450Y749300D02*
X1054100Y742950D01*
X1054100Y730250D01*
X1073150Y698500D02*
X1079500Y692150D01*
X1079500Y679450D01*
X1073150Y673100D01*
X1060450Y673100D01*
X1054100Y679450D01*
X1054100Y692150D01*
X1060450Y698500D01*
X596700Y392630D02*
X596700Y379930D01*
X590350Y373580D01*
X577650Y373580D01*
X571300Y379930D01*
X590350Y373580D02*
X596700Y367230D01*
X596700Y354530D01*
X590350Y348180D01*
X577650Y348180D01*
X571300Y354530D01*
X571300Y367230D01*
X577650Y373580D01*
X577650Y398980D02*
X590350Y398980D01*
X596700Y392630D01*
X577650Y398980D02*
X571300Y392630D01*
X571300Y379930D01*
X590350Y348180D02*
X596700Y341830D01*
X596700Y329130D01*
X590350Y322780D01*
X577650Y322780D01*
X571300Y329130D01*
X571300Y341830D01*
X577650Y348180D01*
M02*
